<?xml version="1.0" standalone="no"?>
<!DOCTYPE svg PUBLIC "-//W3C//DTD SVG 1.1//EN" "http://www.w3.org/Graphics/SVG/1.1/DTD/svg11.dtd" >
<svg xmlns="http://www.w3.org/2000/svg">
<defs>
  <font id="BevIcons" horiz-adv-x="768">
    <font-face font-family="BevIcons"
      units-per-em="1024" ascent="1024"
      descent="0" />
    <missing-glyph horiz-adv-x="0" />
    <glyph glyph-name="circle-o-notch"
      unicode="&#xE001;"
      horiz-adv-x="1024" d="M1005.7142857142856 512Q1005.7142857142856 411.4285714285715 966.5714285714286 320T861.4285714285713 162.5714285714287T704 57.4285714285715T512 18.2857142857143T320 57.4285714285715T162.5714285714286 162.5714285714287T57.4285714285714 320T18.2857142857143 512Q18.2857142857143 633.7142857142858 73.7142857142857 739.7142857142858T225.1428571428572 914.2857142857144T438.8571428571429 1000.5714285714286V870.2857142857143Q312.5714285714286 844.5714285714286 229.4285714285714 744T146.2857142857143 512Q146.2857142857143 437.7142857142858 175.4285714285714 370T253.4285714285714 253.4285714285715T370 175.4285714285715T512 146.2857142857143T654 175.4285714285715T770.5714285714286 253.4285714285715T848.5714285714286 370T877.7142857142857 512Q877.7142857142857 643.4285714285714 794.5714285714286 744T585.1428571428571 870.2857142857143V1000.5714285714286Q702.8571428571428 982.8571428571428 798.8571428571428 914.2857142857144T950.2857142857142 739.7142857142858T1005.7142857142856 512z" />
    <glyph glyph-name="commenting"
      unicode="&#xE002;"
      horiz-adv-x="1024" d="M365.7142857142857 512Q365.7142857142857 542.2857142857143 344.2857142857143 563.7142857142858T292.5714285714286 585.1428571428571T240.8571428571429 563.7142857142858T219.4285714285714 512T240.8571428571429 460.2857142857143T292.5714285714286 438.8571428571429T344.2857142857143 460.2857142857143T365.7142857142857 512zM585.1428571428571 512Q585.1428571428571 542.2857142857143 563.7142857142857 563.7142857142858T512 585.1428571428571T460.2857142857143 563.7142857142858T438.8571428571429 512T460.2857142857143 460.2857142857143T512 438.8571428571429T563.7142857142857 460.2857142857143T585.1428571428571 512zM804.5714285714286 512Q804.5714285714286 542.2857142857143 783.1428571428571 563.7142857142858T731.4285714285713 585.1428571428571T679.7142857142857 563.7142857142858T658.2857142857142 512T679.7142857142857 460.2857142857143T731.4285714285713 438.8571428571429T783.1428571428571 460.2857142857143T804.5714285714286 512zM1024 512Q1024 412.5714285714286 955.4285714285714 328.2857142857144T769.1428571428571 195.1428571428572T512 146.2857142857143Q449.1428571428571 146.2857142857143 391.4285714285714 156.5714285714287Q292.5714285714286 57.7142857142858 142.8571428571429 25.7142857142858Q113.1428571428572 20 93.7142857142857 18.2857142857143Q86.8571428571429 17.7142857142858 81.1428571428571 21.7142857142858T73.7142857142857 32Q71.4285714285714 40.5714285714287 85.1428571428571 53.1428571428572Q88 56 98.5714285714286 65.4285714285715T113.1428571428572 78.8571428571429T126.5714285714286 93.4285714285715T140.2857142857143 111.4285714285715T152 132.5714285714287T163.4285714285714 160T171.7142857142857 192.8571428571429T178.8571428571429 234.2857142857144Q95.4285714285714 285.7142857142858 47.7142857142857 358T0 512Q0 611.4285714285714 68.5714285714286 695.7142857142858T254.8571428571429 828.8571428571429T512 877.7142857142858T769.1428571428571 828.8571428571429T955.4285714285714 695.7142857142858T1024 512z" />
    <glyph glyph-name="basis-cocoa"
      unicode="&#xE003;"
      horiz-adv-x="1024" d="M17.44 872.048L425.2 0L1006.56 271.8400000000001L710.784 904.4A59.72800000000001 44.4 17.210999999999995 0 0 675.744 881.296A59.72800000000001 44.4 17.210999999999995 0 0 608.368 899.648A44.4 59.727999999999994 80.19200000000002 0 0 545.1840000000001 875.6A44.4 59.727999999999994 80.19200000000002 0 0 493.4880000000001 921.904A44.4 59.727999999999994 56.181000000000004 0 0 430.2240000000001 928.528A44.4 59.727999999999994 56.181000000000004 0 0 400.3840000000001 986.592A44.4 59.727999999999994 27.544000000000004 0 0 343.2640000000001 1022.272A44.4 59.727999999999994 27.544000000000004 0 0 342.432 1024L17.44 872.048zM340.96 936.528A34.384 34.384 0 0 0 387.328 919.728L460.6079999999999 762.992L632.9279999999999 843.552A34.384 34.384 0 1 0 662.0479999999999 781.264L489.7439999999999 700.688L596.5439999999999 472.304L768.8319999999999 552.864A34.384 34.384 0 1 0 797.9519999999999 490.576L625.6639999999999 410.0160000000001L714.6879999999999 219.6320000000001A34.384 34.384 0 1 0 652.3999999999999 190.5120000000001L563.36 380.896L391.088 300.3200000000001A34.384 34.384 0 1 0 361.968 362.6080000000001L534.24 443.2000000000001L427.44 671.5840000000001L255.152 591.0240000000001A34.384 34.384 0 1 0 226.032 653.3120000000001L398.32 733.8720000000001L325.024 890.624A34.384 34.384 0 0 0 340.944 936.544z" />
    <glyph glyph-name="basis-coffee"
      unicode="&#xE004;"
      horiz-adv-x="1024" d="M773.024 571.36C706.704 575.024 654.624 525.552 591.312 514.72C538.064 496.8480000000001 480.176 483.36 424.9600000000001 501.696C357.6 520.944 292.096 561.664 219.3120000000001 547.936C190.4800000000001 540.528 145.4560000000001 532.8800000000001 141.68 496.544C138.912 466.6559999999999 177.488 447.536 200.304 466.352C252.624 497.696 310.7040000000001 466.064 360.88 446.944C435.872 417.584 519.92 416.048 596.288 441.4559999999999C645.856 451.9519999999999 691.6800000000001 473.3759999999999 737.36 494.4639999999999C773.408 509.904 813.952 490.784 832.224 457.9839999999999C854.9440000000001 433.5519999999999 899.984 457.3119999999999 892.6560000000001 489.872C878.5600000000001 529.1679999999999 839.1360000000001 556.816 799.8720000000001 567.6479999999999A132.384 132.384 0 0 1 773.0240000000001 571.3599999999999zM419.28 820.384C297.808 817.12 171.056 761.216 109.344 652.384C43.696 543.648 58.448 390.3520000000001 153.568 303.1040000000001C246.624 215.712 379.568 189.312 503.28 186.384C663.056 181.1040000000001 832.88 243.136 928.512 375.952C970.704 432.064 985.632 509.712 954.944 574.672C909.536 674.3520000000001 808.384 732.0640000000001 710.2239999999999 769.712C617.52 803.488 518.2239999999999 823.8240000000001 419.2799999999999 820.384z" />
    <glyph glyph-name="basis-herbal"
      unicode="&#xE005;"
      horiz-adv-x="1024" d="M631.84 1008.64A256 128 75.00000000000001 0 1 622.528 1008.592A256 128 75.00000000000001 0 1 469.12 837.664A128.00000000000003 256.00000000000006 30.000000000000014 0 1 256 955.408A128.00000000000003 256.00000000000006 30.000000000000014 0 1 251.44 711.9359999999999A128 256 75.00000000000001 0 1 17.44 644.496A128 256 75.00000000000001 0 1 186.336 469.136A256.00000000000006 128.00000000000003 30.000000000000004 0 1 68.592 256A256.00000000000006 128.00000000000003 30.000000000000004 0 1 312.064 251.4400000000001A256 128 75.00000000000001 0 1 379.504 17.4400000000001A256 128 75.00000000000001 0 1 554.864 186.3680000000001A128.00000000000003 256.00000000000006 30.000000000000014 0 1 768 68.608A128.00000000000003 256.00000000000006 30.000000000000014 0 1 772.56 312.064A128 256 75.00000000000001 0 1 1006.56 379.472A128 256 75.00000000000001 0 1 837.632 554.88A256.00000000000006 128.00000000000003 30.000000000000004 0 1 955.392 768A256.00000000000006 128.00000000000003 30.000000000000004 0 1 711.936 772.56A256 128 75.00000000000001 0 1 644.528 1006.56A256 128 75.00000000000001 0 1 631.84 1008.64zM512 704C617.5360000000001 704 704 617.5360000000001 704 512S617.5360000000001 320 512 320S320 406.464 320 512S406.464 704 512 704zM512 619.6800000000001A107.07200000000002 107.07200000000002 0 0 1 404.288 512A107.088 107.088 0 0 1 512 404.288A107.088 107.088 0 0 1 619.712 512A107.07200000000002 107.07200000000002 0 0 1 512 619.6800000000001z" />
    <glyph glyph-name="basis-tea"
      unicode="&#xE006;"
      horiz-adv-x="1024" d="M0.8 11.84L8.048 50.72C41.904 232.736 95.216 388.3520000000001 161.488 498.6079999999999C194.128 552.9279999999999 221.968 588.8639999999999 263.552 630.4639999999999C296.7680000000001 663.68 319.9840000000001 682.896 355.2320000000001 706.384C426.336 753.7439999999999 480.3680000000001 777.088 647.2 832.432C781.504 876.992 829.0880000000001 895.824 889.0720000000001 928.176C929.632 950.064 978.5760000000002 983.744 1010.8160000000001 1011.952C1017.9040000000002 1018.16 1024.016 1022.928 1024.3840000000002 1022.544C1025.6320000000003 1021.296 992.7520000000002 959.184 976.4160000000002 931.952C901.2640000000002 806.592 810.3520000000003 707.3919999999999 683.4880000000003 612.2719999999999C639.0880000000003 578.992 599.3760000000003 551.7919999999999 505.9360000000003 490.6399999999999C366.1280000000003 399.1359999999999 313.2480000000003 361.0399999999999 248.1440000000003 304.9439999999999C156.6560000000003 226.1119999999999 78.0640000000003 133.6159999999999 16.6240000000003 32.3999999999999C0.9440000000003 6.6079999999998 -0.5279999999997 4.6879999999999 0.8000000000003 11.8559999999999zM3.664 1.456C3.664 1.936 13.104 13.296 24.624 26.7520000000001C80.064 91.3920000000001 155.664 165.792 232.576 231.3920000000001C293.696 283.552 335.904 316.7200000000001 464.08 413.312C570.112 493.216 614.304 527.36 657.568 562.8C819.904 695.7280000000001 919.36 810.432 995.328 952.32C1003.776 968.128 1013.616 987.568 1017.184 995.52C1020.752 1003.504 1023.952 1009.2 1024.288 1008.208C1025.088 1005.776 1007.872 930.208 995.264 880.848C918.992 582.16 811.52 367.632 669.344 230.272C523.4240000000001 89.28 342.6720000000001 17.5359999999999 95.2320000000001 2.3679999999999C65.9520000000001 0.5759999999999 3.6640000000001 -0.048 3.6640000000001 1.4399999999999z" />
    <glyph glyph-name="clear"
      unicode="&#xE007;"
      horiz-adv-x="1024" d="M512 992C247.312 992 32 776.72 32 512C32 247.3440000000001 247.312 32 512 32S992 247.328 992 512S776.688 992 512 992zM512 922.608C739.184 922.608 922.592 739.184 922.592 512.0160000000001C922.592 284.832 739.2 101.424 512 101.424S101.408 284.832 101.408 512C101.408 739.184 284.8 922.608 512 922.608zM313.28 766.704A56 56 0 0 1 274.24 670.544L432.8 512L274.24 353.472A56 56 0 1 1 353.472 274.272L512 432.8L670.528 274.256A56 56 0 1 1 749.744 353.456L591.184 511.984L749.7439999999999 670.5440000000001A56 56 0 1 1 670.5439999999999 749.744L512 591.2L353.472 749.728A56 56 0 0 1 313.28 766.6879999999999z" />
    <glyph glyph-name="filters"
      unicode="&#xE008;"
      horiz-adv-x="1024" d="M51.216 935.472V761.712L449.1840000000001 265.2000000000001V50.7360000000001H574.816V265.2000000000001L972.7840000000002 761.712V935.472z" />
    <glyph glyph-name="iceable"
      unicode="&#xE009;"
      horiz-adv-x="1024" d="M404.56 1001.232L353.632 950.32L476 827.952C477.28 807.552 477.84 788.912 460.528 813.408L405.6 868.3199999999999L354.6880000000001 817.424L476.0000000000001 696.112V574.352L370.5280000000001 635.232L326.1600000000001 800.944L256.5920000000001 782.288L282.3680000000001 686.1759999999999C266.2880000000001 693.9679999999998 250.8160000000001 702.24 250.7200000000001 722.3039999999999L211.6000000000001 868.2879999999999L142.0320000000001 849.664L181.3440000000001 702.896L34.5920000000001 663.568L53.2160000000001 594.016L220.3680000000001 638.8C238.6720000000001 629.712 255.0880000000001 620.8799999999999 225.2160000000001 618.1279999999999L150.2240000000001 598.0159999999998L168.8480000000001 528.4799999999999L334.5600000000001 572.8639999999999L440 512L334.56 451.152L168.848 495.5360000000001L150.224 426L246.336 400.2240000000001C231.552 390.192 216.656 380.9440000000001 199.248 390.88L53.216 430L34.592 360.464L181.344 321.1199999999999L142.0320000000001 174.3359999999999L211.6 155.7119999999999L256.3680000000001 322.8479999999999C273.3920000000001 334.1439999999999 289.2800000000001 343.9679999999999 276.7040000000001 316.7199999999998L256.5920000000001 241.6799999999999L326.1600000000001 223.0559999999998C340.9600000000001 278.2879999999998 355.7120000000001 333.5839999999999 370.56 388.7519999999999L476 449.6159999999999V327.8719999999999L354.688 206.5599999999998L405.6 155.6479999999998L476 226.0319999999998C477.28 208.2079999999999 477.84 190.6719999999998 460.528 180.5599999999998L353.632 73.6479999999998L404.56 22.7519999999998L512 130.24L619.44 22.768L670.368 73.664L548 196.048C546.72 216.432 546.16 235.088 563.472 210.576L618.4 155.664L669.312 206.576L548 327.8880000000001V449.648C583.152 429.36 618.304 409.024 653.472 388.7680000000001L697.84 223.072L767.408 241.6960000000001L741.6320000000001 337.856C757.7120000000001 330.064 773.1840000000001 321.7920000000001 773.2800000000001 301.728L812.4000000000001 155.728L881.9680000000001 174.352L842.6560000000001 321.136L989.4080000000002 360.496L970.7840000000002 430.016L803.6320000000001 385.232C785.3280000000001 394.32 768.912 403.152 798.7840000000001 405.904L873.7760000000001 426.016L855.152 495.5519999999999L689.44 451.1679999999999L584 512.0159999999998L689.44 572.8639999999999L855.152 528.4799999999999L873.7760000000001 598.0159999999998L777.6640000000001 623.7919999999999C792.4480000000001 633.8239999999998 807.344 643.0559999999999 824.7520000000001 633.136L970.7840000000002 594.0159999999998L989.4080000000002 663.568L842.6560000000002 702.896C855.7760000000002 751.808 868.8640000000001 800.736 881.9680000000002 849.664L812.4000000000002 868.288L767.6320000000002 701.1679999999999C750.6080000000002 689.872 734.7200000000001 680.048 747.2960000000002 707.2959999999999L767.4080000000001 782.288C744.2080000000001 788.528 721.0400000000001 794.736 697.8400000000001 800.944L653.4720000000001 635.232L548.0000000000001 574.352V696.112L669.3120000000001 817.424L618.4 868.3199999999999L548 797.952C546.72 815.7760000000001 546.16 833.312 563.472 843.424L670.384 950.32L619.44 1001.232L512 893.792L404.56 1001.232z" />
    <glyph glyph-name="order-one"
      unicode="&#xE00A;"
      horiz-adv-x="1024" d="M490.576 959.824A48 48 0 0 1 443.488 910.944C444.224 708.928 442.848 597.92 446.176 469.136C444.544 439.424 425.92 439.616 411.328 446.384C363.696 500.304 331.488 521.088 274.48 550.64A48.016 48.016 0 0 1 251.424 556.352C200.96 555.9839999999999 185.168 487.9839999999999 230.304 465.424C266.928 446.432 330.208 376.144 376.384 295.456C422.576 214.7520000000001 454.304 121.76 454.304 68.736C454.272 67.168 454.496 65.696 454.6079999999999 64.16H774.112C801.5999999999999 219.7439999999999 819.136 398.08 820.288 591.632A48 48 0 0 1 726.8 607.7919999999999A48 48 0 0 1 679.5519999999999 648.704A48.06399999999999 48.06399999999999 0 0 1 632.896 612.512A48 48 0 0 1 586.0799999999999 648.704A48 48 0 0 1 543.7919999999999 622.608A13084.544 13084.544 0 0 0 539.4719999999999 911.328A48 48 0 0 1 490.5759999999999 959.824z" />
    <glyph glyph-name="orders"
      unicode="&#xE00B;"
      horiz-adv-x="1024" d="M242.128 1006.576V892.896H162.128V17.424H861.8720000000001V892.896H781.8720000000001V1006.56H697.84V892.88H554.032V1006.56H469.9680000000001V892.88H326.1600000000001V1006.56zM246.16 808.864H777.8399999999999V101.4400000000001H246.16zM402.848 747.856V694.976H730V747.856zM402.848 641.36V595.792H646V641.36zM402.848 473.568V420.704H730V473.568zM402.848 367.072V321.52H646V367.072zM355.904 727.9839999999999L310.432 682.544L291.248 701.7439999999999L262.976 673.4559999999999L310.432 625.952L384.192 699.712z" />
    <glyph glyph-name="packaged"
      unicode="&#xE00C;"
      horiz-adv-x="1024" d="M489.6 993.04A219.296 219.296 0 0 1 455.648 991.072C387.856 981.952 321.8880000000001 942.608 280.1280000000001 891.6320000000001C253.4560000000001 859.04 247.6000000000001 818.88 245.3600000000001 780.352C243.1200000000001 741.84 244.1760000000001 703.712 236.4000000000001 672.336C228.3520000000001 640 211.088 587.984 204.464 568.2080000000001L169.296 581.904L139.552 565.888L83.504 417.184L98.384 389.728L208.192 348.56L239.072 363.424L290.544 509.824L277.968 539.584L238.64 554.8799999999999C244.8 573.1199999999999 262.88 627.136 271.92 663.536C281.472 702 279.792 742.096 281.888 778.256S289.552 845.3919999999999 308.448 868.4639999999999C355.536 925.968 445.728 967.344 516.208 953.536C562.928 944.384 603.6479999999999 892.064 627.5519999999999 842.4159999999999C632.7359999999999 831.632 636.3999999999999 805.136 637.0879999999999 783.0079999999999C637.1839999999999 780.2239999999999 637.0559999999998 778.4799999999999 637.0879999999999 775.856L489.5679999999999 777.5039999999999L377.4719999999999 636.8L388.9119999999999 25.9839999999999L936.8159999999998 36.2879999999999L918.5119999999998 660.8319999999999L799.5519999999998 774.0639999999999L673.6639999999998 775.4559999999999C673.6319999999997 778.6239999999999 673.7759999999997 780.7679999999999 673.6639999999998 784.1439999999999C672.8959999999997 808.2399999999999 671.1359999999997 836.2079999999999 660.5119999999997 858.2879999999999C634.2079999999997 912.9119999999998 590.1119999999997 976.3679999999998 523.2319999999997 989.4719999999998A196.368 196.368 0 0 1 489.6159999999998 993.0399999999998z" />
    <glyph glyph-name="preparation-temperature"
      unicode="&#xE00D;"
      horiz-adv-x="1024" d="M512 1015.968C511.168 1015.984 479.488 1016.8 446.16 1000.4C412.4 983.808 376.128 942.64 376.288 880.192C376.496 793.664 376.336 510.912 376.288 420.8160000000001C320.96 379.232 284 314.336 284 240C284 114.512 386.512 12 512 12S740 114.512 740 240C740 314.336 703.024 379.232 647.712 420.8C647.664 510.9119999999999 647.504 793.664 647.712 880.192C647.872 942.656 611.6 983.808 577.84 1000.4C544.512 1016.8 512.832 1016 512 1015.968zM511.472 944H512.528S529.904 943.728 546.0640000000001 935.776C562.224 927.84 575.8240000000001 919.136 575.7120000000001 880.3679999999999C575.488 790.16 575.6800000000001 481.328 575.7120000000001 403.808V383.632L592.9760000000001 373.1199999999999C637.9360000000001 345.6959999999999 668.0000000000001 296.6879999999999 668.0000000000001 239.9999999999999A155.456 155.456 0 0 0 512 84A155.456 155.456 0 0 0 356 240C356 296.688 386.064 345.6960000000001 431.04 373.12L448.288 383.6320000000001V403.8080000000001C448.32 481.3280000000001 448.512 790.1600000000001 448.288 880.3680000000002C448.192 919.136 461.776 927.8400000000001 477.936 935.776C494.096 943.728 511.472 944 511.472 944zM512 625.5360000000001S480.64 626.0160000000001 480.72 594.256C480.784 567.4559999999999 480.72 407.376 480.72 349.136A113.55200000000002 113.55200000000002 0 0 1 512 126.4A113.55200000000002 113.55200000000002 0 1 1 543.28 349.12C543.28 407.36 543.216 567.44 543.28 594.24C543.36 626 512 625.5360000000001 512 625.5360000000001z" />
    <glyph glyph-name="preparation-time"
      unicode="&#xE00E;"
      horiz-adv-x="1024" d="M310.848 1012V662.24L461.088 512L310.848 361.76V12H713.152V361.76L562.912 512L713.152 662.24V1012H310.848zM382.848 940H641.152V692.064L512 562.944L382.848 692.0640000000001V940zM512 461.056L641.152 331.9360000000001V84H382.848V331.9360000000001L512 461.056zM592 132.016V207.28L512 287.28L432 207.28V132.016zM592 765.76V711.04L512 631.04L432 711.04V765.76z" />
    <glyph glyph-name="random"
      unicode="&#xE00F;"
      horiz-adv-x="1024" d="M45.904 364.4160000000001C46.352 344.7520000000001 57.488 321.5840000000001 70.976 312.5120000000001L471.248 43.5840000000001C492.944 29.008 510.32 37.744 509.648 63.408L493.648 661.104C492.96 686.48 474.736 712.8960000000001 453.3439999999999 719.9680000000001L58.528 850.512C45.2 854.912 34.928 842.624 35.376 823.12L45.904 364.416M106.768 431.136C106.112 459.376 121.136 472.896 141.44 461.6959999999999C162.24 450.2079999999999 179.472 417.9039999999999 180.192 388.368C180.896 358.8 164.752 345.92 143.872 358.736C123.536 371.216 107.44 402.896 106.768 431.136M100.608 693.728C99.952 721.8399999999999 114.88 737.824 135.056 729.968C155.744 721.92 172.864 692.48 173.568 663.088C174.288 633.6479999999999 158.24 618.1279999999999 137.488 627.472C117.264 636.608 101.264 665.616 100.608 693.728M200.704 513.92C199.984 543.824 216.864 558.992 239.68 548.256C263.104 537.232 282.512 503.872 283.296 472.5119999999999C284.08 441.1199999999999 265.856 426.592 242.368 439.104C219.488 451.28 201.44 484.016 200.704 513.92M314.016 310.368C313.216 342.304 332.432 356.32 358.4480000000001 341.968C385.2000000000001 327.2 407.3760000000001 289.072 408.24 255.472C409.12 221.856 388.2560000000001 208.752 361.424 225.216C335.344 241.216 314.832 278.432 314.016 310.3680000000001M306.56 607.2C305.76 638.976 324.848 656.144 350.688 646.0799999999999C377.248 635.7439999999999 399.28 601.296 400.144 567.872C401.008 534.432 380.3040000000001 517.904 353.648 529.9359999999999C327.7600000000001 541.616 307.36 575.424 306.56 607.216M988.8320000000002 823.44C988.848 843.5840000000001 978.704 856.48 965.9520000000002 852.144L579.5520000000001 720.4639999999999C558.1760000000002 713.168 541.0240000000001 685.552 541.7440000000001 658.992L557.7440000000001 61.3600000000001C558.3840000000001 36.8480000000002 575.7280000000002 29.3120000000001 596.0160000000002 44.1600000000001L966.0640000000002 314.9760000000001C978.4000000000002 324.0000000000001 988.2560000000002 346.5440000000001 988.2720000000002 365.5200000000001L988.8320000000002 823.44M838.0320000000002 509.9520000000001C838.2720000000002 480.1440000000001 822.0000000000001 447.4240000000001 800.4160000000002 435.0080000000002C778.2080000000002 422.2400000000001 760.0640000000002 436.3840000000002 759.6480000000001 467.6480000000001C759.2160000000001 499.0560000000002 776.8640000000001 532.7840000000001 799.2480000000002 544.0640000000001C821.0080000000002 555.0240000000001 837.7920000000001 539.8720000000001 838.0320000000002 509.9520000000001M532.272 980.528C518.88 982.992 497.6320000000001 982.944 484.4 980.448L95.888 907.104C75.04 903.168 67.696 896.656 80.112 892.544L473.808 762.384C496.64 754.832 534.288 754.896 556.6400000000001 762.5440000000001L942.2400000000002 893.952C954.4 898.1120000000001 946.6400000000002 904.592 925.5360000000002 908.464L532.2560000000002 980.56M761.0560000000003 910.704C787.7440000000003 905.408 794.4480000000003 896.736 775.1200000000002 890.96C755.1840000000002 884.9920000000001 717.4080000000002 884.928 690.3520000000002 890.8320000000001C664.0800000000002 896.5440000000001 660.3360000000002 905.216 680.5920000000002 910.592C700.2880000000002 915.808 735.1040000000003 915.872 761.0560000000003 910.72M550.7680000000003 910.368C574.4160000000003 905.088 576.1600000000003 896.4000000000001 553.5520000000002 890.6080000000001C530.2560000000002 884.6400000000001 492.4800000000002 884.576 468.8000000000002 890.48C445.8400000000003 896.1920000000001 447.0400000000003 904.8800000000002 470.3360000000002 910.256C492.9760000000002 915.472 527.7920000000003 915.536 550.7680000000003 910.384M340.5280000000003 910.0480000000002C361.1200000000003 904.7360000000002 357.9360000000003 896.0640000000001 332.0480000000003 890.2560000000001C305.3600000000003 884.2880000000001 267.6000000000003 884.224 247.3120000000003 890.1280000000002C227.6320000000003 895.8560000000001 233.7760000000003 904.5280000000002 260.1120000000003 909.92C285.7120000000003 915.152 320.5280000000003 915.2 340.5280000000003 910.0480000000002" />
    <glyph glyph-name="time-aftermeal"
      unicode="&#xE010;"
      horiz-adv-x="1024" d="M512 992C247.312 992 32 776.72 32 512C32 247.3440000000001 247.312 32 512 32S992 247.328 992 512S776.688 992 512 992zM512 922.608C739.184 922.608 922.592 739.184 922.592 512.0160000000001C922.592 284.832 739.2 101.424 512 101.424S101.408 284.832 101.408 512C101.408 739.184 284.8 922.608 512 922.608zM866 982.352A36 36 0 0 1 815.12 981.6L494.416 660.88A87.728 87.728 0 0 1 482.32 667.616C466.736 674.672 445.808 674.4 429.008 666.88C395.408 651.856 365.232 619.36 303.808 557.9359999999999A28 28 0 1 1 343.392 518.336C404.64 579.584 439.12 610.064 451.856 615.7439999999999C458.224 618.592 455.872 618.112 459.232 616.592C459.4879999999999 616.432 460.224 615.856 460.544 615.6800000000001L353.28 508.4160000000001A28 28 0 1 1 392.88 468.8320000000001L500.112 576.0640000000001C500.288 575.7600000000001 500.912 575.008 501.0239999999999 574.7520000000001C502.5439999999999 571.392 503.0239999999999 573.76 500.16 567.392C494.48 554.6560000000001 464.016 520.1600000000001 402.784 458.912A28 28 0 1 1 442.384 419.312C503.808 480.752 536.288 510.944 551.296 544.544C558.816 561.344 559.0880000000001 582.2719999999999 552.032 597.872A87.808 87.808 0 0 1 545.296 609.904L866.032 930.672A36 36 0 0 1 865.984 982.336zM971.072 877.28A36 36 0 0 1 920.192 876.544L452.672 409.024A36 36 0 0 1 494.304 351.408S528.592 368.6560000000001 569.072 391.9360000000001C609.552 415.2000000000001 655.6320000000001 443.0880000000001 685.6320000000001 472.2080000000001C742.912 527.8080000000001 759.104 606.4480000000001 760.8800000000001 615.4080000000001L971.088 825.6320000000001A36 36 0 0 1 971.0720000000002 877.2800000000001z" />
    <glyph glyph-name="time-afternoon"
      unicode="&#xE011;"
      horiz-adv-x="1024" d="M386.336 1020.912A40 40 0 0 1 347.0080000000001 969.984L397.1200000000001 784.224C373.9680000000001 774.432 353.0240000000001 761.28 333.5360000000001 746.3520000000001L264.4160000000001 815.232A40 40 0 1 1 207.9360000000001 758.5440000000001L276.8480000000001 689.904A297.216 297.216 0 0 1 239.5680000000001 625.904L53.472 675.408A40 40 0 1 1 32.912 598.096L219.712 548.3679999999999A291.84 291.84 0 0 1 219.504 474.496L125.632 449.184A40 40 0 0 1 146.464 371.9359999999999L239.776 397.1199999999999C249.584 373.9519999999999 262.7200000000001 353.0079999999999 277.664 333.5039999999999L141.216 196.5919999999999A40 40 0 1 1 197.904 140.1119999999999L334.096 276.8159999999998A297.248 297.248 0 0 1 398.128 239.5359999999999L373.216 145.9679999999999A40 40 0 1 1 450.528 125.4079999999999L475.632 219.68C499.792 216.64 524.4 216.256 549.504 219.4559999999999L599.7760000000001 33.184A40 40 0 1 1 677.008 54.016L626.88 239.76C650.048 249.568 670.992 262.7200000000001 690.496 277.664L759.6 208.784A40 40 0 1 1 816.0640000000001 265.472L747.1840000000001 334.128A297.232 297.232 0 0 1 784.4320000000001 398.0959999999999L970.5280000000002 348.608A40 40 0 1 1 991.1200000000002 425.92L804.2880000000001 475.5999999999999C807.3280000000001 499.7599999999999 807.7120000000001 524.3999999999999 804.4960000000001 549.52L898.368 574.8159999999999A40 40 0 1 1 877.5680000000001 652.0639999999999L784.2240000000002 626.8799999999999C774.4160000000002 650.0479999999999 761.2800000000002 670.9759999999999 746.3360000000001 690.4799999999999L882.7840000000001 827.4079999999999A40 40 0 1 1 826.1280000000002 883.8879999999999L689.904 747.2A297.504 297.504 0 0 1 625.904 784.448L650.816 878.048A40 40 0 1 1 573.504 898.608L548.4 804.288A291.904 291.904 0 0 1 474.496 804.512L424.256 990.832A40 40 0 0 1 386.336 1020.912zM517.8720000000001 728.016C532.6880000000001 727.664 547.1840000000001 725.664 561.248 722.384A40 40 0 0 1 569.152 719.7919999999999A214.736 214.736 0 0 0 661.6 667.3599999999999A40 40 0 0 1 668.7520000000001 660.672A215.36 215.36 0 0 0 724.6560000000001 549.8879999999999A216.23999999999998 216.23999999999998 0 0 0 722.288 462.448A40 40 0 0 1 719.808 455.0079999999999A214.704 214.704 0 0 0 667.4879999999999 362.608A40 40 0 0 1 660.6239999999999 355.2639999999999A215.328 215.328 0 0 0 549.872 299.3599999999999A216.32 216.32 0 0 0 463.0239999999999 301.488A40 40 0 0 1 454.6879999999999 304.256A214.72 214.72 0 0 0 362.56 356.512A40 40 0 0 1 355.2 363.424A215.328 215.328 0 0 0 299.344 474.112A216.25599999999997 216.25599999999997 0 0 0 301.68 561.4559999999999A40 40 0 0 1 304.16 568.944A214.72 214.72 0 0 0 356.56 661.4879999999999A40 40 0 0 1 363.3759999999999 668.7679999999999A215.344 215.344 0 0 0 474.1279999999999 724.6399999999999A218.992 218.992 0 0 0 517.872 728z" />
    <glyph glyph-name="time-evening"
      unicode="&#xE012;"
      horiz-adv-x="1024" d="M512 992A480 480 0 0 1 506 991.776A1248 1248 0 0 0 602.16 514.2239999999999A1248 1248 0 0 0 505.12 32.3200000000001A480 480 0 0 1 512 32A480 480 0 0 1 992 512A480 480 0 0 1 512 992z" />
    <glyph glyph-name="time-morning"
      unicode="&#xE013;"
      horiz-adv-x="1024" d="M364.88 976A208.416 131.552 37.999999999999986 0 1 212.624 1001.632A208.416 131.552 37.999999999999986 0 1 48.384 873.312A208.416 131.552 37.999999999999986 0 1 36.416 719.392M512 890.528C268.7200000000001 890.528 70.656 692.48 70.656 449.184C70.656 205.92 268.7200000000001 7.808 512 7.808S953.344 205.888 953.344 449.184C953.344 692.48 755.28 890.528 512 890.528zM512 811.344C712.48 811.344 874.1600000000001 649.664 874.1600000000001 449.184C874.16 248.704 712.48 87.04 512 87.04C311.52 87.04 149.84 248.7200000000001 149.84 449.2000000000001C149.84 649.664 311.52 811.36 512 811.36zM511.408 738.3679999999999C487.632 738.768 469.376 715.376 472.4 692.496V459.776C449.728 420.256 426.5920000000001 380.976 404.192 341.296C391.712 316.496 412.784 284.064 440.512 285.392C458.928 284.736 472.512 298.8639999999999 479.84 314.2879999999999C502.496 353.3759999999999 524.88 392.656 547.7280000000001 431.6159999999999C554.384 446.8159999999999 550.624 463.7759999999998 551.6 479.8879999999999C551.504 553.9679999999998 551.7760000000001 628.0799999999999 551.44 702.1759999999999C550.0640000000001 722.4159999999999 531.696 739.0239999999999 511.4080000000001 738.3679999999999zM987.584 719.392A131.552 208.41599999999994 52.00000000000002 0 1 975.616 873.312A131.552 208.41599999999994 52.00000000000002 0 1 811.376 1001.632A131.552 208.41599999999994 52.00000000000002 0 1 659.12 976.016" />
    <glyph glyph-name="unknown"
      unicode="&#xE014;"
      horiz-adv-x="1024" d="M512 992C247.312 992 32 776.72 32 512C32 247.3440000000001 247.312 32 512 32S992 247.328 992 512S776.688 992 512 992zM512 922.608C739.184 922.608 922.592 739.184 922.592 512.0160000000001C922.592 284.832 739.2 101.424 512 101.424S101.408 284.832 101.408 512C101.408 739.184 284.8 922.608 512 922.608zM470.672 405.648Q467.152 414.8000000000001 465.04 426.048Q463.28 437.648 463.28 447.8400000000001Q463.28 464 466.448 477.376Q469.616 490.736 475.936 502.336Q482.272 514.288 491.76 524.832Q501.248 535.7280000000001 513.904 546.2719999999999Q527.264 557.52 537.104 567.024Q547.312 576.864 554.336 586.352Q561.376 596.192 564.896 606.4Q568.4 616.944 568.4 629.5999999999999Q568.4 640.48 564.528 649.632Q560.672 659.136 553.28 665.808Q546.24 672.48 535.696 676.3679999999999Q525.504 680.2079999999999 512.8480000000001 680.2079999999999Q485.4240000000001 680.2079999999999 455.8880000000001 668.6239999999999Q426.3680000000001 657.376 400.0000000000001 634.1599999999999V740Q427.0720000000001 756.1600000000001 459.0560000000001 764.256Q491.0560000000001 772.352 525.152 772.352Q557.856 772.352 585.984 764.96Q614.096 757.92 634.8480000000001 742.4639999999999Q655.936 726.992 667.5360000000001 702.736Q679.488 678.832 679.488 645.088Q679.488 623.6479999999999 674.576 606.048Q669.648 588.8319999999999 660.16 573.3599999999999Q650.672 557.8879999999999 636.608 543.4879999999999Q622.5279999999999 529.4079999999999 604.256 514.3039999999999Q591.952 504.112 582.4639999999999 495.3119999999999Q573.328 486.5279999999999 566.992 477.7439999999999Q561.0079999999999 469.2959999999999 557.856 459.4559999999999Q554.688 449.9679999999999 554.688 437.6639999999999Q554.688 429.2159999999999 556.8 420.4319999999999Q559.264 411.632 563.12 405.6639999999999H470.672zM522 251.664Q493.872 251.664 475.232 268.544Q456.6079999999999 286.128 456.6079999999999 310.032Q456.6079999999999 334.6399999999999 475.232 351.152Q493.872 367.68 522 367.68Q549.76 367.68 568.048 351.152Q586.336 334.992 586.336 310.032Q586.336 284.7199999999999 568.4 268.1919999999999Q550.112 251.6639999999999 522 251.6639999999999z" />
    <glyph glyph-name="zoom-in"
      unicode="&#xE015;"
      horiz-adv-x="1024" d="M392 1009.12C184.272 1009.12 14.848 839.7280000000001 14.848 632S184.288 254.848 392 254.848C487.248 254.848 574.4 290.544 640.912 349.152L650.096 339.968A48 48 0 0 1 662.976 293.152L929.088 27.04A48 48 0 1 1 996.976 94.928L730.848 361.024A48 48 0 0 1 696.4 375.568A48 48 0 0 1 684.064 373.872L674.848 383.088C733.4559999999999 449.5999999999999 769.1519999999999 536.736 769.1519999999999 632C769.152 839.7280000000001 599.712 1009.12 392 1009.12zM392 913.12C547.84 913.12 673.152 787.84 673.152 632S547.84 350.848 392 350.848A280.432 280.432 0 0 0 110.848 632C110.848 787.84 236.16 913.12 392 913.12zM391.712 840.112A18.656 18.656 0 0 1 373.344 821.184V650.64H202.8A18.672 18.672 0 1 1 202.8 613.312H373.3440000000001V442.784A18.656 18.656 0 1 1 410.6400000000001 442.784V613.312H581.1840000000001A18.672 18.672 0 0 1 581.1840000000001 650.64H410.64V821.184A18.656 18.656 0 0 1 391.712 840.112z" />
    <glyph glyph-name="zoom-out"
      unicode="&#xE016;"
      horiz-adv-x="1024" d="M392 1009.12C184.272 1009.12 14.848 839.7280000000001 14.848 632S184.288 254.848 392 254.848C487.248 254.848 574.4 290.544 640.912 349.152L650.096 339.968A48 48 0 0 1 662.976 293.152L929.088 27.04A48 48 0 1 1 996.976 94.928L730.848 361.024A48 48 0 0 1 696.4 375.568A48 48 0 0 1 684.064 373.872L674.848 383.088C733.4559999999999 449.5999999999999 769.1519999999999 536.736 769.1519999999999 632C769.152 839.7280000000001 599.712 1009.12 392 1009.12zM392 913.12C547.84 913.12 673.152 787.84 673.152 632S547.84 350.848 392 350.848A280.432 280.432 0 0 0 110.848 632C110.848 787.84 236.16 913.12 392 913.12zM202.816 650.672A18.672 18.672 0 1 1 202.816 613.328H581.184A18.672 18.672 0 0 1 581.184 650.672z" />
    <glyph glyph-name="error"
      unicode="&#xE017;"
      horiz-adv-x="1024" d="M554 470V726H470V470H554zM554 298V384H470V298H554zM512 938C748 938 938 748 938 512S748 86 512 86S86 276 86 512S276 938 512 938z" />
    <glyph glyph-name="info_outline"
      unicode="&#xE018;"
      horiz-adv-x="1024" d="M470 640V726H554V640H470zM512 170C700 170 854 324 854 512S700 854 512 854S170 700 170 512S324 170 512 170zM512 938C748 938 938 748 938 512S748 86 512 86S86 276 86 512S276 938 512 938zM470 298V554H554V298H470z" />
  </font>
</defs>
</svg>
