<?xml version="1.0" encoding="UTF-8" standalone="no"?>
<!-- Created with Inkscape (http://www.inkscape.org/) -->

<svg
   xmlns:dc="http://purl.org/dc/elements/1.1/"
   xmlns:cc="http://creativecommons.org/ns#"
   xmlns:rdf="http://www.w3.org/1999/02/22-rdf-syntax-ns#"
   xmlns:svg="http://www.w3.org/2000/svg"
   xmlns="http://www.w3.org/2000/svg"
   xmlns:sodipodi="http://sodipodi.sourceforge.net/DTD/sodipodi-0.dtd"
   xmlns:inkscape="http://www.inkscape.org/namespaces/inkscape"
   width="64"
   height="64"
   viewBox="0 0 64.000001 64.000001"
   id="svg2"
   version="1.1"
   inkscape:version="0.91 r13725"
   sodipodi:docname="basis-cocoa.inkscape.svg">
  <defs
     id="defs4" />
  <sodipodi:namedview
     id="base"
     pagecolor="#ffffff"
     bordercolor="#666666"
     borderopacity="1.0"
     inkscape:pageopacity="0.0"
     inkscape:pageshadow="2"
     inkscape:zoom="5.6"
     inkscape:cx="31.529288"
     inkscape:cy="33.63741"
     inkscape:document-units="px"
     inkscape:current-layer="layer1"
     showgrid="false"
     units="px"
     inkscape:snap-object-midpoints="true"
     inkscape:snap-bbox="false"
     inkscape:bbox-paths="false"
     inkscape:bbox-nodes="false"
     inkscape:object-paths="true"
     inkscape:window-width="1920"
     inkscape:window-height="1027"
     inkscape:window-x="-8"
     inkscape:window-y="-8"
     inkscape:window-maximized="1" />
  <metadata
     id="metadata7">
    <rdf:RDF>
      <cc:Work
         rdf:about="">
        <dc:format>image/svg+xml</dc:format>
        <dc:type
           rdf:resource="http://purl.org/dc/dcmitype/StillImage" />
        <dc:title></dc:title>
      </cc:Work>
    </rdf:RDF>
  </metadata>
  <g
     inkscape:label="Layer 1"
     inkscape:groupmode="layer"
     id="layer1"
     transform="translate(0,-988.36216)">
    <path
       style="fill:#000000;fill-opacity:1;fill-rule:evenodd;stroke:none;stroke-width:2.5;stroke-linecap:round;stroke-linejoin:round;stroke-miterlimit:4;stroke-dasharray:none;stroke-opacity:1"
       d="m 1.0900868,997.85966 25.4848362,54.50254 36.334995,-16.9899 -18.486304,-39.53524 a 2.7751724,3.7326411 72.788763 0 1 -2.189176,1.4437 2.7751724,3.7326411 72.788763 0 1 -4.21148,-1.14621 3.7326412,2.7751724 9.8081633 0 1 -3.948942,1.50261 3.7326412,2.7751724 9.8081633 0 1 -3.230976,-2.89367 3.7326411,2.7751724 33.819008 0 1 -3.953665,-0.41428 3.7326411,2.7751724 33.819008 0 1 -1.86567,-3.62887 3.7326411,2.7751724 62.456273 0 1 -3.569656,-2.23084 3.7326411,2.7751724 62.456273 0 1 -0.05226,-0.10734 l -20.3117071,9.4975 z m 20.2198442,-4.03083 a 2.1490158,2.1490158 0 0 1 2.898056,1.04996 l 4.580887,9.79681 10.768365,-5.03514 a 2.1490158,2.1490158 0 1 1 1.820346,3.89294 l -10.768365,5.0353 6.674599,14.2744 10.768366,-5.0351 a 2.1490158,2.1490158 0 1 1 1.820346,3.8929 l -10.768366,5.0353 5.563747,11.8987 a 2.1490158,2.1490158 0 1 1 -3.893035,1.8204 l -5.563747,-11.8989 -10.768365,5.0353 a 2.1490158,2.1490158 0 1 1 -1.820346,-3.893 l 10.768365,-5.0352 -6.674599,-14.2745 -10.768366,5.0352 a 2.1490158,2.1490158 0 1 1 -1.820346,-3.893 l 10.768366,-5.0352 -4.580887,-9.79684 a 2.1490158,2.1490158 0 0 1 0.994979,-2.87033 z"
       id="rect4136"
       inkscape:connector-curvature="0" />
  </g>
</svg>
