<?xml version="1.0" encoding="UTF-8" standalone="no"?>
<!-- Created with Inkscape (http://www.inkscape.org/) -->

<svg
   xmlns:dc="http://purl.org/dc/elements/1.1/"
   xmlns:cc="http://creativecommons.org/ns#"
   xmlns:rdf="http://www.w3.org/1999/02/22-rdf-syntax-ns#"
   xmlns:svg="http://www.w3.org/2000/svg"
   xmlns="http://www.w3.org/2000/svg"
   xmlns:sodipodi="http://sodipodi.sourceforge.net/DTD/sodipodi-0.dtd"
   xmlns:inkscape="http://www.inkscape.org/namespaces/inkscape"
   width="64"
   height="64"
   viewBox="0 0 63.999999 64.000001"
   id="svg2"
   version="1.1"
   inkscape:version="0.91 r13725"
   sodipodi:docname="iceable.inkscape.svg">
  <defs
     id="defs4" />
  <sodipodi:namedview
     id="base"
     pagecolor="#ffffff"
     bordercolor="#666666"
     borderopacity="1.0"
     inkscape:pageopacity="0.0"
     inkscape:pageshadow="2"
     inkscape:zoom="8"
     inkscape:cx="19.0945"
     inkscape:cy="47.664504"
     inkscape:document-units="px"
     inkscape:current-layer="layer1"
     showgrid="false"
     units="px"
     showguides="true"
     inkscape:guide-bbox="true"
     inkscape:window-width="1855"
     inkscape:window-height="1056"
     inkscape:window-x="65"
     inkscape:window-y="24"
     inkscape:window-maximized="1"
     inkscape:object-paths="true"
     inkscape:snap-center="true" />
  <metadata
     id="metadata7">
    <rdf:RDF>
      <cc:Work
         rdf:about="">
        <dc:format>image/svg+xml</dc:format>
        <dc:type
           rdf:resource="http://purl.org/dc/dcmitype/StillImage" />
        <dc:title />
      </cc:Work>
    </rdf:RDF>
  </metadata>
  <g
     inkscape:label="Layer 1"
     inkscape:groupmode="layer"
     id="layer1"
     transform="translate(0,-988.36216)">
    <path
       style="color:#000000;font-style:normal;font-variant:normal;font-weight:normal;font-stretch:normal;font-size:medium;line-height:normal;font-family:sans-serif;text-indent:0;text-align:start;text-decoration:none;text-decoration-line:none;text-decoration-style:solid;text-decoration-color:#000000;letter-spacing:normal;word-spacing:normal;text-transform:none;direction:ltr;block-progression:tb;writing-mode:lr-tb;baseline-shift:baseline;text-anchor:start;white-space:normal;clip-rule:nonzero;display:inline;overflow:visible;visibility:visible;opacity:1;isolation:auto;mix-blend-mode:normal;color-interpolation:sRGB;color-interpolation-filters:linearRGB;solid-color:#000000;solid-opacity:1;fill:#000000;fill-opacity:1;fill-rule:evenodd;stroke:none;stroke-width:4.5;stroke-linecap:butt;stroke-linejoin:miter;stroke-miterlimit:4;stroke-dasharray:none;stroke-dashoffset:0;stroke-opacity:1;color-rendering:auto;image-rendering:auto;shape-rendering:auto;text-rendering:auto;enable-background:accumulate"
       d="m 25.285156,989.78516 c -1.061198,1.06055 -2.122396,2.12109 -3.183594,3.18164 2.549479,2.54947 5.098959,5.09893 7.648438,7.6484 0.08032,1.2746 0.115283,2.4397 -0.966932,0.9085 -1.144486,-1.144 -2.288973,-2.28793 -3.433459,-3.4319 -1.060547,1.06053 -2.121093,2.1211 -3.18164,3.1816 2.527344,2.5274 5.054687,5.0547 7.582031,7.5821 0,2.5364 0,5.0729 0,7.6093 -2.197266,-1.2682 -4.394531,-2.5364 -6.591797,-3.8046 -0.924479,-3.4525 -1.848958,-6.905 -2.773437,-10.3575 -1.449219,0.3887 -2.898438,0.7774 -4.347657,1.1661 0.53711,2.0026 1.074219,4.0052 1.611329,6.0078 -1.005166,-0.4874 -1.972095,-1.0042 -1.978842,-2.2581 -0.814996,-3.0416 -1.629991,-6.0832 -2.444987,-9.12475 -1.449219,0.38802 -2.898437,0.77604 -4.3476559,1.16406 0.8190103,3.05789 1.6380209,6.11589 2.4570309,9.17379 -3.0572915,0.819 -6.1145831,1.6381 -9.1718746,2.4571 0.3880208,1.4492 0.7760417,2.8984 1.1640625,4.3476 3.482422,-0.9329 6.9648441,-1.8659 10.4472661,-2.7988 1.14403,0.5679 2.169274,1.1201 0.302574,1.2917 -1.562447,0.419 -3.124893,0.8381 -4.6873401,1.2571 0.3880207,1.4486 0.7760411,2.8971 1.1640621,4.3457 3.452474,-0.9245 6.904948,-1.8489 10.357422,-2.7734 2.196615,1.2676 4.393229,2.5351 6.589844,3.8027 -2.196615,1.2676 -4.393229,2.5351 -6.589844,3.8027 -3.452474,-0.9245 -6.904948,-1.8489 -10.357422,-2.7734 -0.388021,1.4486 -0.7760414,2.8971 -1.1640621,4.3457 2.0026041,0.5371 4.0052081,1.0742 6.0078121,1.6113 -0.92425,0.6268 -1.854986,1.2043 -2.943618,0.5837 -3.0422313,-0.815 -6.0844627,-1.63 -9.1266941,-2.445 -0.3880208,1.4486 -0.7760417,2.8971 -1.1640625,4.3457 3.0572915,0.8197 6.1145831,1.6393 9.1718746,2.459 -0.81901,3.0579 -1.6380206,6.1159 -2.4570309,9.1738 1.4492189,0.388 2.8984369,0.7761 4.3476559,1.1641 0.932943,-3.4818 1.865886,-6.9636 2.798829,-10.4454 1.063791,-0.7062 2.056747,-1.3201 1.270952,0.383 -0.419094,1.5631 -0.838187,3.1262 -1.257281,4.6893 1.449219,0.388 2.898438,0.776 4.347657,1.164 0.92564,-3.4512 1.847326,-6.9075 2.775437,-10.3554 2.196615,-1.2682 4.393229,-2.5365 6.589844,-3.8047 0,2.5364 0,5.0729 0,7.6093 -2.527344,2.5274 -5.054687,5.0547 -7.582031,7.5821 1.060547,1.0605 2.121093,2.1211 3.18164,3.1816 1.466797,-1.4661 2.933594,-2.9323 4.400391,-4.3984 0.0803,1.114 0.115257,2.2092 -0.966716,2.8417 -2.22724,2.2272 -4.454481,4.4545 -6.681722,6.6817 1.061198,1.0606 2.122396,2.1211 3.183594,3.1817 2.238281,-2.2389 4.476563,-4.4779 6.714844,-6.7168 2.238281,2.2389 4.476563,4.4779 6.714844,6.7168 1.061198,-1.0606 2.122396,-2.1211 3.183594,-3.1817 -2.549479,-2.5495 -5.098959,-5.0989 -7.648438,-7.6484 -0.08032,-1.2746 -0.115283,-2.4397 0.966932,-0.9085 1.144486,1.144 2.288973,2.2879 3.433459,3.4319 1.060547,-1.0605 2.121093,-2.1211 3.18164,-3.1816 -2.527344,-2.5274 -5.054687,-5.0547 -7.582031,-7.5821 0,-2.5364 0,-5.0729 0,-7.6093 2.197371,1.2679 4.394026,2.5385 6.591844,3.8047 0.924479,3.4518 1.848958,6.9036 2.773437,10.3554 1.449219,-0.388 2.898438,-0.776 4.347657,-1.164 -0.53711,-2.0033 -1.074219,-4.0065 -1.611329,-6.0098 1.005166,0.4874 1.972095,1.0042 1.978841,2.2581 0.814996,3.0416 1.629992,6.0832 2.444988,9.1248 1.449219,-0.388 2.898437,-0.7761 4.347656,-1.1641 -0.81901,-3.0579 -1.638021,-6.1159 -2.457031,-9.1738 3.057292,-0.8197 6.114583,-1.6393 9.171875,-2.459 -0.388021,-1.4486 -0.776042,-2.8971 -1.164063,-4.3457 -3.482422,0.9329 -6.964844,1.8659 -10.447266,2.7988 -1.14403,-0.5679 -2.169274,-1.1201 -0.302574,-1.2917 1.562447,-0.419 3.124893,-0.8381 4.68734,-1.2571 -0.388021,-1.4486 -0.776041,-2.8971 -1.164062,-4.3457 -3.452474,0.9245 -6.904948,1.8489 -10.357422,2.7734 -2.196615,-1.2676 -4.393229,-2.5351 -6.589844,-3.8027 2.196615,-1.2676 4.393229,-2.5351 6.589844,-3.8027 3.452474,0.9245 6.904948,1.8489 10.357422,2.7734 0.388021,-1.4486 0.776041,-2.8971 1.164062,-4.3457 -2.002604,-0.5371 -4.005208,-1.0742 -6.007812,-1.6113 0.92425,-0.6268 1.854986,-1.2043 2.943618,-0.5837 3.042231,0.815 6.084463,1.63 9.126694,2.445 0.388021,-1.4492 0.776042,-2.8984 1.164063,-4.3476 -3.057292,-0.819 -6.114583,-1.6381 -9.171875,-2.4571 0.81901,-3.0579 1.638021,-6.1159 2.457031,-9.17379 -1.449219,-0.38802 -2.898437,-0.77604 -4.347656,-1.16406 -0.932943,3.48175 -1.865886,6.96355 -2.798829,10.44535 -1.0638,0.7062 -2.05676,1.3201 -1.270842,-0.383 0.419057,-1.5624 0.838114,-3.1249 1.257171,-4.6873 -1.449219,-0.3887 -2.898438,-0.7774 -4.347657,-1.1661 -0.924479,3.4525 -1.848958,6.905 -2.773437,10.3575 -2.197266,1.2682 -4.394531,2.5364 -6.591797,3.8046 0,-2.5364 0,-5.0729 0,-7.6093 2.527344,-2.5274 5.054687,-5.0547 7.582031,-7.5821 -1.060547,-1.0605 -2.121093,-2.12107 -3.18164,-3.1816 -1.466797,1.46613 -2.933594,2.9323 -4.400391,4.3984 -0.0803,-1.114 -0.115257,-2.2092 0.966716,-2.84171 2.22724,-2.22723 4.454481,-4.45446 6.681722,-6.68169 -1.061198,-1.06055 -2.122396,-2.12109 -3.183594,-3.18164 C 36.476625,992.02344 34.238313,994.26172 32,996.5 c -2.238281,-2.23828 -4.476563,-4.47656 -6.714844,-6.71484 z"
       id="path4187"
       inkscape:connector-curvature="0" />
  </g>
</svg>
