<?xml version="1.0" encoding="UTF-8" standalone="no"?>
<!-- Created with Inkscape (http://www.inkscape.org/) -->

<svg
   xmlns:dc="http://purl.org/dc/elements/1.1/"
   xmlns:cc="http://creativecommons.org/ns#"
   xmlns:rdf="http://www.w3.org/1999/02/22-rdf-syntax-ns#"
   xmlns:svg="http://www.w3.org/2000/svg"
   xmlns="http://www.w3.org/2000/svg"
   xmlns:sodipodi="http://sodipodi.sourceforge.net/DTD/sodipodi-0.dtd"
   xmlns:inkscape="http://www.inkscape.org/namespaces/inkscape"
   width="64"
   height="64"
   viewBox="0 0 63.999999 64.000001"
   id="svg2"
   version="1.1"
   inkscape:version="0.91 r13725"
   sodipodi:docname="time.afternoon.inkscape.svg">
  <defs
     id="defs4" />
  <sodipodi:namedview
     id="base"
     pagecolor="#ffffff"
     bordercolor="#666666"
     borderopacity="1.0"
     inkscape:pageopacity="0.0"
     inkscape:pageshadow="2"
     inkscape:zoom="11.313709"
     inkscape:cx="21.241731"
     inkscape:cy="29.844045"
     inkscape:document-units="px"
     inkscape:current-layer="layer1"
     showgrid="false"
     units="px"
     showguides="true"
     inkscape:guide-bbox="true"
     inkscape:window-width="1855"
     inkscape:window-height="1056"
     inkscape:window-x="65"
     inkscape:window-y="24"
     inkscape:window-maximized="1" />
  <metadata
     id="metadata7">
    <rdf:RDF>
      <cc:Work
         rdf:about="">
        <dc:format>image/svg+xml</dc:format>
        <dc:type
           rdf:resource="http://purl.org/dc/dcmitype/StillImage" />
        <dc:title />
      </cc:Work>
    </rdf:RDF>
  </metadata>
  <g
     inkscape:label="Layer 1"
     inkscape:groupmode="layer"
     id="layer1"
     transform="translate(0,-988.36216)">
    <path
       style="color:#000000;font-style:normal;font-variant:normal;font-weight:normal;font-stretch:normal;font-size:medium;line-height:normal;font-family:sans-serif;text-indent:0;text-align:start;text-decoration:none;text-decoration-line:none;text-decoration-style:solid;text-decoration-color:#000000;letter-spacing:normal;word-spacing:normal;text-transform:none;direction:ltr;block-progression:tb;writing-mode:lr-tb;baseline-shift:baseline;text-anchor:start;white-space:normal;clip-rule:nonzero;display:inline;overflow:visible;visibility:visible;opacity:1;isolation:auto;mix-blend-mode:normal;color-interpolation:sRGB;color-interpolation-filters:linearRGB;solid-color:#000000;solid-opacity:1;fill:#000000;fill-opacity:1;fill-rule:evenodd;stroke:none;stroke-width:5;stroke-linecap:round;stroke-linejoin:miter;stroke-miterlimit:3.5;stroke-dasharray:none;stroke-dashoffset:0;stroke-opacity:1;color-rendering:auto;image-rendering:auto;shape-rendering:auto;text-rendering:auto;enable-background:accumulate"
       d="m 24.146484,988.55469 a 2.50025,2.50025 0 0 0 -2.458984,3.18359 l 3.132812,11.60942 c -1.447333,0.6122 -2.756131,1.4342 -3.974609,2.3671 l -4.320312,-4.3046 a 2.5004039,2.5004039 0 1 0 -3.529297,3.5429 l 4.30664,4.291 c -0.934634,1.2365 -1.727048,2.5658 -2.330078,4 l -11.6308591,-3.0957 a 2.50025,2.50025 0 1 0 -1.2851563,4.8321 l 11.6757814,3.1074 c -0.190738,1.5093 -0.213898,3.0488 -0.01367,4.6172 l -5.8671875,1.582 a 2.5003833,2.5003833 0 0 0 1.3027344,4.8281 l 5.8320311,-1.5742 c 0.612643,1.4485 1.433369,2.7573 2.367188,3.9766 l -8.5273441,8.5566 a 2.5004294,2.5004294 0 1 0 3.5429691,3.5293 l 8.511718,-8.543 c 1.236763,0.935 2.567366,1.7269 4.001953,2.3301 l -1.55664,5.8477 a 2.50025,2.50025 0 1 0 4.832031,1.2851 l 1.568359,-5.8925 c 1.509604,0.1906 3.048558,0.2141 4.617188,0.014 l 3.142578,11.6426 a 2.50025,2.50025 0 1 0 4.826172,-1.3027 l -3.132812,-11.6074 c 1.448749,-0.6128 2.7571,-1.4352 3.976562,-2.3692 l 4.318359,4.3047 a 2.5004393,2.5004393 0 1 0 3.529297,-3.543 l -4.304687,-4.291 c 0.933897,-1.2359 1.725452,-2.5647 2.328125,-3.998 l 11.630859,3.0937 a 2.50025,2.50025 0 1 0 1.287109,-4.832 l -11.677734,-3.1055 c 0.190817,-1.5099 0.214152,-3.0501 0.01367,-4.6191 l 5.867188,-1.5821 a 2.50025,2.50025 0 1 0 -1.300782,-4.8281 l -5.833984,1.5742 c -0.612546,-1.4479 -1.433716,-2.7557 -2.367188,-3.9746 l 8.527344,-8.5586 a 2.50025,2.50025 0 1 0 -3.541016,-3.52926 l -8.513671,8.54296 c -1.235742,-0.9339 -2.566803,-1.7253 -4,-2.3281 l 1.55664,-5.84962 a 2.50025,2.50025 0 1 0 -4.832031,-1.28516 l -1.568359,5.89458 c -1.510208,-0.191 -3.049844,-0.2142 -4.619141,-0.014 l -3.140625,-11.64455 a 2.50025,2.50025 0 0 0 -2.369141,-1.88086 z m 8.220704,18.30661 c 0.925633,0.022 1.831436,0.1473 2.710937,0.3516 a 2.50025,2.50025 0 0 0 0.494141,0.1621 c 2.183218,0.5978 4.16379,1.723 5.777343,3.2773 a 2.50025,2.50025 0 0 0 0.447266,0.418 c 1.752949,1.8504 3.011251,4.2133 3.494141,6.9238 0.334446,1.8773 0.258304,3.7258 -0.148438,5.4649 a 2.50025,2.50025 0 0 0 -0.154297,0.4648 c -0.595733,2.1821 -1.718286,4.1614 -3.269531,5.7754 a 2.50025,2.50025 0 0 0 -0.429688,0.459 c -1.850212,1.7524 -4.211896,3.0113 -6.921874,3.4941 -1.863308,0.332 -3.69989,0.2659 -5.427735,-0.1328 a 2.50025,2.50025 0 0 0 -0.521484,-0.1738 c -2.175148,-0.5975 -4.148386,-1.7181 -5.757813,-3.2656 a 2.50025,2.50025 0 0 0 -0.460937,-0.4317 c -1.750424,-1.8496 -3.007787,-4.2099 -3.490235,-6.9179 -0.334058,-1.8751 -0.258994,-3.7217 0.146485,-5.459 a 2.50025,2.50025 0 0 0 0.154297,-0.4688 c 0.596177,-2.1853 1.721091,-4.1677 3.27539,-5.7832 a 2.50025,2.50025 0 0 0 0.425782,-0.455 c 1.850092,-1.752 4.212295,-3.0095 6.921874,-3.4922 0.921178,-0.1641 1.835778,-0.2328 2.734376,-0.211 z"
       id="path4166"
       inkscape:connector-curvature="0" />
  </g>
</svg>
