<?xml version="1.0" encoding="UTF-8" standalone="no"?>
<!-- Created with Inkscape (http://www.inkscape.org/) -->

<svg
   xmlns:dc="http://purl.org/dc/elements/1.1/"
   xmlns:cc="http://creativecommons.org/ns#"
   xmlns:rdf="http://www.w3.org/1999/02/22-rdf-syntax-ns#"
   xmlns:svg="http://www.w3.org/2000/svg"
   xmlns="http://www.w3.org/2000/svg"
   xmlns:sodipodi="http://sodipodi.sourceforge.net/DTD/sodipodi-0.dtd"
   xmlns:inkscape="http://www.inkscape.org/namespaces/inkscape"
   width="64"
   height="64"
   viewBox="0 0 64.000001 64.000001"
   id="svg4190"
   version="1.1"
   inkscape:version="0.91 r13725"
   sodipodi:docname="basis-cocoa.inkscape.svg">
  <defs
     id="defs4192" />
  <sodipodi:namedview
     id="base"
     pagecolor="#ffffff"
     bordercolor="#666666"
     borderopacity="1.0"
     inkscape:pageopacity="0.0"
     inkscape:pageshadow="2"
     inkscape:zoom="11.313708"
     inkscape:cx="9.1051238"
     inkscape:cy="26.362607"
     inkscape:document-units="px"
     inkscape:current-layer="layer1"
     showgrid="false"
     units="px"
     inkscape:object-paths="false"
     inkscape:object-nodes="false"
     inkscape:snap-smooth-nodes="false"
     inkscape:window-width="1855"
     inkscape:window-height="1056"
     inkscape:window-x="65"
     inkscape:window-y="24"
     inkscape:window-maximized="1"
     showguides="false" />
  <metadata
     id="metadata4195">
    <rdf:RDF>
      <cc:Work
         rdf:about="">
        <dc:format>image/svg+xml</dc:format>
        <dc:type
           rdf:resource="http://purl.org/dc/dcmitype/StillImage" />
        <dc:title />
      </cc:Work>
    </rdf:RDF>
  </metadata>
  <g
     inkscape:label="Layer 1"
     inkscape:groupmode="layer"
     id="layer1"
     transform="translate(0,-988.36216)">
    <path
       style="fill:#000000;fill-opacity:1;fill-rule:evenodd;stroke:none;stroke-width:0.2;stroke-linecap:butt;stroke-linejoin:miter;stroke-miterlimit:4;stroke-dasharray:none;stroke-opacity:1;opacity:0.94999999"
       d="m 25.767238,997.17184 c -1.131886,0.0548 -1.880151,0.52584 -0.366131,0.85119 0.800237,0.89363 1.859145,-0.37315 2.601792,-0.35004 -0.687357,-0.36877 -1.448864,-0.61778 -2.235661,-0.50115 z m -2.747261,0.98944 c -1.864194,0.24911 -3.591137,0.91498 -4.606127,2.57882 -1.83443,1.2254 -0.546491,3.3838 -0.171794,5.0499 1.741013,0.5248 1.732654,-2.4087 3.114494,-3.0801 1.215192,-1.19 2.794644,-2.2443 4.128509,-3.06959 0.267258,-0.95693 -1.879585,-1.03458 -2.465082,-1.47903 z m 5.86592,0.40662 c -1.164061,-0.36882 -3.690377,1.7977 -1.31224,1.36441 1.744474,-0.38046 2.485739,1.99349 3.812232,0.74189 0.964327,-0.4427 3.115353,0.058 1.264439,-0.96412 -1.112881,-0.6989 -2.475112,-0.99791 -3.764431,-1.14218 z m -2.937147,2.1543 c -1.609601,0.5884 -2.962643,1.8292 -4.189331,3.0146 -1.203957,1.3426 -2.21515,2.9665 -1.468074,4.7414 1.54007,0.549 3.487597,-0.8947 5.192568,-0.8778 1.100233,-1.4209 2.443081,-2.6257 3.658872,-3.937 1.830145,-2.1205 -1.318308,-2.9897 -2.94379,-2.8061 0.218378,-0.2532 -0.245709,-0.036 -0.250245,-0.1351 z m 7.046938,0.6659 c -1.770096,-0.3343 -2.806819,1.7026 -2.716671,2.7538 1.508427,0.5218 3.612603,2.1716 4.332144,-0.1451 0.720676,-0.95 3.005035,-0.701 1.086675,-1.7585 -0.804592,-0.5413 -1.73392,-0.8549 -2.702148,-0.8502 z m -2.123065,0.7422 -0.02206,0.022 0.02206,-0.022 z m -14.708262,1.4003 c -1.589835,1.4155 -1.209052,3.7995 -1.038536,5.6942 -0.03733,1.5388 0.598125,3.4852 1.902058,4.2207 -0.536986,-2.0852 -1.688219,-4.499 -0.479984,-6.5521 1.347365,-0.7831 0.224309,-2.2593 -0.03603,-3.3143 l -0.345561,-0.048 -0.002,10e-5 4.9e-5,-6e-4 z m 21.600231,0.3029 c -1.511008,0.1325 -2.722865,0.8007 -3.402046,2.1997 1.282332,-0.3384 2.539688,-0.4265 3.366663,0.773 0.92982,-0.7782 3.746402,0.1786 2.125765,-1.5646 -0.427138,-0.8124 -1.12826,-1.4248 -2.090382,-1.4081 z m -8.395052,1.0876 c -1.415571,1.1522 -2.43983,2.731 -3.776555,3.9057 -1.429859,1.0721 -0.235922,3.6197 1.127246,1.5784 1.326872,-1.4274 2.662223,-2.8937 4.627411,-3.4725 0.965458,-0.372 2.730524,-0.7259 0.650666,-0.9959 -0.88617,-0.3144 -1.700321,-0.8277 -2.628768,-1.0157 z m -4.310242,6.1541 -0.04278,-0.026 0.04278,0.026 z m -6.898621,-4.384 c -1.769899,1.0686 -1.055771,3.2974 -0.643043,4.9053 0.0207,0.8916 1.478734,4.0421 1.400368,1.6148 -0.114062,-1.7953 1.987801,-3.3364 0.359402,-4.5512 -0.612628,-1.0135 0.474978,-2.0304 -1.116727,-1.9689 z m 18.041781,0.051 c 0.01825,0.057 0.04937,-0.028 0,0 z m 0.01498,0.02 c -1.664195,0.1937 -3.248187,0.476 -4.764642,1.2114 -1.755028,0.758 -3.845271,2.2974 -4.24386,4.0413 -0.25507,1.3859 1.124785,3.6557 2.299841,1.8408 1.47688,-2.6295 4.568213,-3.7326 7.378314,-4.2343 1.14582,-1.4446 0.472756,-1.844 -0.669653,-2.8592 z m 3.467247,0.5713 c -1.819955,-0.249 -0.784864,1.4488 -1.736272,2.418 1.465202,-0.1743 2.658033,2.2596 3.855293,1.2239 0.82545,-0.9913 2.114706,-1.8305 3.454665,-1.559 -1.069226,-1.1213 -2.786741,-1.3627 -4.193121,-1.9432 -0.443317,-0.1632 -0.919199,-0.2096 -1.380565,-0.1397 z m -15.30131,1.4916 c -0.02259,0.014 0.01482,0.014 0,0 z m -0.0053,0.01 c -1.972024,0.1827 -4.112311,1.0494 -4.221436,3.3393 -0.379236,1.8017 -0.951136,4.7629 1.169338,5.6535 0.928078,-0.3489 -0.175791,-2.9673 0.561881,-4.1591 0.263024,-1.9743 2.694854,-2.2233 2.209231,-4.2521 -0.02159,0.2177 0.279992,-0.8091 0.280986,-0.5816 z m 12.830149,1.7394 c -2.625977,0.463 -5.532282,1.4282 -6.924572,3.8872 -1.05521,1.4042 0.73241,4.9001 2.413651,3.7806 1.774196,-1.9244 3.267606,-4.1406 5.488795,-5.603 0.753148,-0.6808 2.405104,-1.0324 0.63577,-1.5419 -0.517137,-0.2297 -1.072809,-0.3772 -1.613644,-0.5229 z m 7.66567,-0.219 c -1.376552,0.059 -2.992602,1.2334 -1.203337,2.093 1.332878,1.1615 -0.453352,3.4925 1.801775,3.2385 1.348777,0.414 2.637256,1.4364 3.830108,0.1455 0.458599,-2.0175 -1.519857,-3.9783 -3.109296,-5.076 -0.413846,-0.206 -0.843102,-0.4213 -1.31925,-0.401 z m -20.308032,1.5148 c -2.109924,0.9327 -2.082816,3.6602 -1.842416,5.6051 0.486934,1.1255 -0.307757,3.4422 1.601305,3.7067 0.07859,-1.8004 1.267851,-3.698 1.914643,-5.4804 1.212909,-1.0047 -0.210078,-2.3381 -0.05172,-3.7221 -0.482187,0.2769 -1.226188,0.3441 -1.621815,-0.1093 z m 17.190074,0.3515 c -2.117399,0.093 -3.66431,1.766 -5.172685,3.0644 -1.173402,1.2872 -2.224031,2.6803 -3.421765,3.9467 0.971975,1.6355 3.878677,2.2926 4.55596,0.1083 1.246652,-1.8887 3.56976,-2.4862 5.2756,-3.8339 0.762479,-1.181 0.06441,-2.857 -1.23711,-3.2855 z m -14.007306,3.1229 c -1.135886,1.3768 -1.50089,3.3041 -2.259708,4.8272 -0.01125,1.2769 -0.07302,2.9461 1.415062,3.4275 1.833499,0.7535 -0.102987,-2.2417 0.840681,-3.1941 -0.05556,-1.6849 3.149306,-1.7653 1.583656,-3.018 -0.497831,-1.4243 0.341478,-2.1972 -1.579691,-2.0426 z m 15.766586,1.0156 c -1.805404,1.4666 -4.545673,2.0248 -5.420553,4.4265 -0.04915,1.7202 1.625806,3.1156 3.303766,2.7621 1.98861,0.2792 4.111684,-0.6248 5.228977,-2.3065 1.624299,-0.9675 2.429742,-3.5036 0.06732,-4.0673 -0.999067,-0.4667 -2.090718,-0.7044 -3.179515,-0.8148 z m 5.274861,0.9279 c 0.611691,0.4933 0.07458,2.3302 1.478892,1.5219 0.189292,-0.8543 -0.799608,-1.3641 -1.478892,-1.5219 z m -17.960627,1.7428 c -2.542024,0.2631 -2.587228,3.2364 -1.97172,5.0773 -0.846516,1.5265 1.791626,4.3611 2.520311,3.0509 -0.340594,-2.3065 1.767037,-4.5511 2.288062,-6.1351 -0.923702,-0.7821 -1.681131,-1.5611 -2.836653,-1.9931 z m 20.419072,0.6855 c -1.833079,-0.1743 -3.016602,1.1076 -4.078036,2.4116 -1.547896,1.4729 2.35034,1.1369 3.269905,1.9083 1.30262,-0.043 2.593482,2.5378 3.566306,1.2406 0.687863,-1.5446 1.019263,-4.1606 -0.608135,-5.1811 -0.679115,-0.2606 -1.423823,-0.4487 -2.15004,-0.3794 z m -14.037776,1.6939 c -1.446545,0.5441 -3.078646,-0.059 -3.633584,1.8921 -1.335766,1.9431 -1.622943,4.6177 -0.502264,6.7186 0.764944,0.8965 4.006708,2.1012 4.109205,0.7989 -0.396604,-2.074 -0.414347,-4.5453 1.05675,-6.2373 1.19869,-1.0147 -1.436751,-1.6245 -1.030107,-3.1723 z m 8.549286,2.0966 c -1.731908,0.5131 -2.606907,1.3528 -2.034596,3.2488 -0.145136,2.1754 1.714317,3.7574 3.531345,4.5623 1.495974,1.1164 3.315625,-0.2972 4.915588,-0.7235 2.009751,-0.4172 2.843786,-2.8568 0.716288,-3.8828 -1.625549,-1.5719 -3.850811,-2.1647 -5.987393,-2.658 -0.395042,-0.1437 -0.804997,-0.2976 -1.141232,-0.5468 z m -6.171553,0.8459 c -1.557296,1.4968 -1.565689,3.4881 -1.654161,5.4442 0.596599,1.3646 0.920088,3.8612 2.851643,3.7575 0.945847,-0.9727 3.892972,-1.8818 3.67679,-2.8908 -1.501794,-1.1272 -1.781235,-3.0164 -1.803349,-4.7682 0.551476,-2.3215 -1.798824,-0.7737 -3.070923,-1.5427 z m 14.677438,2.1655 c -0.0496,0.8047 2.073187,2.389 1.665058,0.496 -0.140631,-0.7361 -1.151525,-0.494 -1.665058,-0.496 z m -8.542707,5.1228 c -1.006541,0.8285 -3.712606,1.5455 -3.576311,2.7524 1.7371,0.6412 3.780825,0.6862 5.661562,0.6503 1.689305,0.4624 2.678923,-3.3915 0.728852,-2.1173 -1.01735,-0.1181 -1.881144,-0.8917 -2.814103,-1.2854 z"
       id="path4718"
       inkscape:connector-curvature="0" />
    <path
       style="color:#000000;font-style:normal;font-variant:normal;font-weight:normal;font-stretch:normal;font-size:medium;line-height:normal;font-family:sans-serif;text-indent:0;text-align:start;text-decoration:none;text-decoration-line:none;text-decoration-style:solid;text-decoration-color:#000000;letter-spacing:normal;word-spacing:normal;text-transform:none;direction:ltr;block-progression:tb;writing-mode:lr-tb;baseline-shift:baseline;text-anchor:start;white-space:normal;clip-rule:nonzero;display:inline;overflow:visible;visibility:visible;opacity:0.94999999;isolation:auto;mix-blend-mode:normal;color-interpolation:sRGB;color-interpolation-filters:linearRGB;solid-color:#000000;solid-opacity:1;fill:#000000;fill-opacity:1;fill-rule:evenodd;stroke:none;stroke-width:0.1;stroke-linecap:round;stroke-linejoin:miter;stroke-miterlimit:4;stroke-dasharray:none;stroke-dashoffset:0;stroke-opacity:1;color-rendering:auto;image-rendering:auto;shape-rendering:auto;text-rendering:auto;enable-background:accumulate"
       d="m 17.872768,992.9029 c -2.255472,-0.002 -4.95386,0.18697 -6.475943,1.80364 -1.9098185,-2.18617 -5.1021035,3.00798 -2.5736346,2.79315 -2.0206528,2.38805 -0.9655865,6.06081 0.1424972,8.89651 1.5390074,4.9426 3.7525774,9.7596 7.4111484,13.5096 4.136519,4.6372 9.315826,8.2592 13.039978,13.2842 4.466073,5.2935 10.802186,8.9227 17.595946,10.2345 3.007312,0.6468 5.892623,1.4529 8.754587,2.8174 1.334601,0.6363 5.328873,3.6572 6.723211,2.2915 1.789993,-2.5083 -0.774768,-5.1536 -0.667678,-7.9634 0.172193,-4.518 -1.339573,-8.9938 -0.856506,-13.532 -0.309014,-4.7364 -3.307702,-8.7178 -5.729967,-12.6159 -3.040971,-4.4639 -7.376514,-7.7942 -11.418538,-11.2913 -5.183054,-3.92667 -10.845927,-7.59833 -17.389856,-8.6615 -2.814021,-0.68293 -5.629624,-1.58351 -8.555245,-1.5664 z m 1.135044,1.7034 c 3.568796,0.0766 6.88097,1.65498 10.357247,2.30888 5.650021,1.74539 10.498315,5.34262 15.150485,8.88112 4.130772,3.5473 8.206479,7.3045 10.907998,12.1046 1.786545,2.6958 3.396232,5.7352 3.06079,9.0827 -0.487911,4.1089 0.08823,8.2095 0.45295,12.297 0.02682,2.0583 -0.601072,4.3182 -2.976318,2.7058 -3.959779,-1.6639 -7.402017,-4.7343 -11.819728,-5.2286 -3.787439,-0.4176 -7.169559,-2.22 -10.304539,-4.2813 -4.573104,-2.4603 -6.58134,-7.6185 -10.490182,-10.8449 -4.564495,-3.8944 -10.207408,-7.4234 -12.139703,-13.4514 -0.722764,-2.7486 -2.2107877,-5.6602 -1.2817137,-8.52732 1.0634777,-1.6946 2.7989337,-2.8546 4.3179027,-4.12175 1.437701,-0.82315 3.153509,-0.86456 4.764811,-0.92483 z"
       id="path4700"
       inkscape:connector-curvature="0"
       sodipodi:nodetypes="cccccccscsccccccccccccccccccc" />
  </g>
</svg>
