<?xml version="1.0" encoding="UTF-8" standalone="no"?>
<!-- Created with Inkscape (http://www.inkscape.org/) -->

<svg
   xmlns:dc="http://purl.org/dc/elements/1.1/"
   xmlns:cc="http://creativecommons.org/ns#"
   xmlns:rdf="http://www.w3.org/1999/02/22-rdf-syntax-ns#"
   xmlns:svg="http://www.w3.org/2000/svg"
   xmlns="http://www.w3.org/2000/svg"
   xmlns:sodipodi="http://sodipodi.sourceforge.net/DTD/sodipodi-0.dtd"
   xmlns:inkscape="http://www.inkscape.org/namespaces/inkscape"
   width="64"
   height="64"
   viewBox="0 0 64.000001 64.000001"
   id="svg4190"
   version="1.1"
   inkscape:version="0.91 r13725"
   sodipodi:docname="basis-cocoa.inkscape.svg">
  <defs
     id="defs4192" />
  <sodipodi:namedview
     id="base"
     pagecolor="#ffffff"
     bordercolor="#666666"
     borderopacity="1.0"
     inkscape:pageopacity="0.0"
     inkscape:pageshadow="2"
     inkscape:zoom="11.2"
     inkscape:cx="12.342268"
     inkscape:cy="27.695316"
     inkscape:document-units="px"
     inkscape:current-layer="layer1"
     showgrid="false"
     units="px"
     inkscape:object-paths="true"
     inkscape:object-nodes="false"
     inkscape:snap-smooth-nodes="false"
     inkscape:window-width="1920"
     inkscape:window-height="1027"
     inkscape:window-x="-8"
     inkscape:window-y="-8"
     inkscape:window-maximized="1"
     showguides="false" />
  <metadata
     id="metadata4195">
    <rdf:RDF>
      <cc:Work
         rdf:about="">
        <dc:format>image/svg+xml</dc:format>
        <dc:type
           rdf:resource="http://purl.org/dc/dcmitype/StillImage" />
        <dc:title />
      </cc:Work>
    </rdf:RDF>
  </metadata>
  <g
     inkscape:label="Layer 1"
     inkscape:groupmode="layer"
     id="layer1"
     transform="translate(0,-988.36216)">
    <path
       style="fill:#323232;fill-opacity:1;fill-rule:evenodd;stroke:#323232;stroke-width:1.65897787px;stroke-linecap:butt;stroke-linejoin:miter;stroke-opacity:1"
       d="m 5.4700151,1010.4716 c 3.4838465,6.3311 9.0745329,11.1281 14.0267879,16.2765 3.607157,3.9372 7.707932,7.4967 12.644746,9.6624 6.326575,3.1325 13.624167,4.1795 19.354622,8.5232 1.136818,0.8845 3.452175,2.1292 0.520534,1.0651 -6.274936,-1.4723 -13.076653,-1.4326 -18.706868,-4.9699 -5.146028,-3.0119 -9.317654,-7.3627 -13.675216,-11.3704 -5.676113,-5.592 -10.7338512,-11.9256 -14.1624144,-19.1566"
       id="path4227"
       inkscape:connector-curvature="0"
       sodipodi:nodetypes="cccccccc" />
    <path
       style="fill:none;fill-opacity:0.47058824;fill-rule:evenodd;stroke:#323232;stroke-width:1.65897787px;stroke-linecap:butt;stroke-linejoin:round;stroke-opacity:1"
       d="m 13.879279,991.82777 c 8.672726,1.79421 17.763493,3.7812 24.750162,9.58893 5.140367,3.8535 10.529309,7.5618 14.789096,12.4059 3.635437,5.35 5.561386,11.9178 4.853129,18.3906 -0.246466,3.906 0.918105,7.7241 2.8825,11.0593 1.692429,2.4577 0.36928,8.6531 -3.230911,6.4954 -4.718158,-3.5659 -9.353988,-7.499 -15.111784,-9.2813 -6.959342,-2.3384 -14.21509,-4.7756 -19.577067,-10.0376 -4.699024,-4.6223 -9.426618,-9.2428 -13.7759601,-14.2003 -4.574931,-5.2556 -7.4233063,-12.2213 -7.244606,-19.22181 1.0217022,-4.05619 5.8181047,-5.84134 9.6231351,-5.8118 0.712118,0.0629 1.421011,0.25194 2.042306,0.61268 z"
       id="path4213"
       inkscape:connector-curvature="0"
       sodipodi:nodetypes="cccccccccccc" />
    <path
       style="fill:#323232;fill-opacity:1;fill-rule:evenodd;stroke:#323232;stroke-width:0.82948893;stroke-linecap:round;stroke-linejoin:round;stroke-miterlimit:4;stroke-dasharray:none;stroke-opacity:1"
       d="m 21.424295,996.78392 c -0.954773,1.43537 3.383355,0.86635 0.880906,0.01 l -0.438771,-0.0164 -0.442135,0.007 z m -2.478746,0.96234 c -2.8073,0.26999 -5.837796,1.71976 -6.833564,4.53624 0.559215,1.8787 3.378723,2.9788 3.846042,0.3892 0.801383,-1.6371 6.226129,-3.058 3.457201,-4.91725 l -0.469679,-0.008 z m 5.647654,0.83272 c -1.337969,-0.11858 -1.902883,1.11312 -0.240215,1.15294 1.146403,-0.42059 2.927339,1.78778 3.511681,0.13125 -0.840458,-0.94138 -2.00984,-1.37728 -3.271466,-1.28419 z m -2.841647,1.99602 c -2.788205,1.2185 -5.266285,3.3116 -6.652114,6.0494 -0.268553,2.7638 3.100701,1.5415 4.467117,0.6865 2.154828,-0.8779 4.210429,-2.2959 5.392358,-4.3488 1.02398,-2.4117 -2.101943,-1.2127 -3.207361,-2.3871 z m 7.533444,1.134 c -2.708053,-0.8934 -3.710042,3.2217 -0.72826,3.2235 1.633061,1.7505 1.32511,-2.2397 3.119501,-1.733 -0.48681,-0.8535 -1.361596,-1.5524 -2.391241,-1.4905 z m -18.307081,1.9863 c -2.2865132,-0 -1.5251421,4.6401 -1.3519274,4.2312 -0.4341387,-1.7386 3.7000054,-2.8243 1.3519274,-4.2312 z m 22.428605,0.7744 c -1.703782,-0.6078 -2.862952,2.2948 -0.488208,1.684 0.84404,1.6338 4.901061,1.1467 2.814668,-0.9218 -0.621343,-0.5804 -1.506319,-0.7387 -2.32646,-0.7622 z m -8.100479,0.7678 c -1.220749,1.9623 -3.894675,2.4284 -5.027272,4.4543 -0.624516,2.1247 1.220335,1.8956 2.173441,0.5824 1.733345,-1.4544 3.398532,-3.1579 5.627432,-3.8211 -0.902127,-0.454 -1.830212,-0.8555 -2.773601,-1.2156 z m -12.899201,1.1536 c -1.897951,2.2022 -1.443981,5.8811 0.577693,7.8226 0.336648,-1.7277 1.99226,-3.5418 1.167232,-5.322 -1.205022,-0.5333 0.08534,-3.0341 -1.744925,-2.5006 z m 19.66796,1.1762 c -2.993583,-0.2089 -5.804636,1.3493 -7.939464,3.3273 -2.261497,0.5653 -1.425699,6.0072 0.752913,3.2319 2.117407,-1.9684 4.706439,-4.0576 7.782751,-3.7858 1.009057,-1.02 0.844486,-2.3043 -0.5962,-2.7734 z m 4.59135,1.0239 c -2.466004,-0.813 -2.704994,3.2446 -0.242434,3.3296 1.464809,0.8809 3.517072,-0.7731 3.788295,-1.7234 -0.886304,-0.8567 -2.279699,-1.719 -3.545861,-1.6062 z m -17.957138,0.7323 c -2.923056,0.2521 -4.100301,3.5669 -4.058796,6.1043 -0.357038,0.9177 0.883467,4.307 1.42673,2.4517 -0.723929,-1.7744 -0.360614,-3.8 1.08688,-5.0987 0.848727,-0.9508 1.777419,-2.087 1.545186,-3.4573 z m 13.615283,2.5468 c -2.789071,0.4217 -5.606336,1.9909 -6.918624,4.5663 -0.655582,2.6897 2.724565,3.5658 4.063094,1.4645 1.040629,-1.993 2.850174,-3.3246 4.503841,-4.7982 1.182669,-0.8632 -1.082518,-1.281 -1.648311,-1.2326 z m 8.96561,0.1199 c -3.645788,0.2844 1.658505,3.1008 -0.388901,4.6918 1.510018,1.1803 5.852333,2.3863 4.465087,-0.9553 -0.733834,-1.6879 -1.877984,-3.9713 -4.076186,-3.7365 z m -21.881013,0.823 c -2.196563,1.0605 -2.012168,3.8114 -1.757889,5.847 -0.287619,1.0527 0.598775,3.4076 1.533993,1.6293 0.322646,-2.0071 1.476868,-3.6025 2.355713,-5.2474 0.08878,-1.1697 -0.937119,-2.3054 -2.131817,-2.2289 z m 17.127653,0.9655 c -3.309552,1.1186 -5.040436,4.385 -7.520486,6.597 0.97264,2.4118 3.653654,1.2269 4.776366,-0.3661 1.153692,-1.4839 3.071021,-1.7963 4.470681,-2.9367 2.191131,-1.6108 1.073476,-3.0501 -1.726561,-3.2942 z m -13.735171,2.9194 c -1.049291,1.7613 -2.723139,3.544 -2.434858,5.7419 0.344433,1.5043 1.914112,1.8519 1.839658,-0.016 0.05832,-1.4067 1.582873,-2.6807 2.031401,-3.3295 -0.632329,-0.7884 0.17235,-2.6856 -1.436201,-2.3961 z m 16.874916,1.2734 c -1.66087,1.7151 -4.71887,1.9442 -5.623062,4.3762 -0.67245,2.2442 1.961041,3.3951 3.816846,3.0688 1.882196,-0.031 3.740646,-0.2931 4.796788,-2.0321 1.72195,-1.2759 2.214596,-4.3019 -0.582343,-4.4491 -0.796781,-0.3359 -1.598321,-0.6608 -2.408229,-0.9638 z m 7.044175,0.5962 c -1.97402,0.7528 0.338457,3.1363 0.97981,1.5086 -0.196501,-0.5769 -0.611863,-1.0364 -0.97981,-1.5086 z m -21.051523,1.847 c -2.897969,1.6605 -2.881779,6.39 -0.10213,8.1591 1.22115,-1.4447 0.624454,-4.448 3.016108,-5.2952 0.882361,-1.6434 -1.947832,-2.2575 -2.913978,-2.8639 z m 22.917873,1.3609 c -2.354135,-0.3182 -4.135259,1.5548 -5.407878,3.2722 2.488399,0.024 4.564504,2.0654 7.07788,1.7372 2.512895,-1.4055 0.553247,-4.5091 -1.670002,-5.0094 l 0,0 z m -16.210677,1.5098 c -2.777819,0.082 -4.801882,2.8159 -4.820802,5.4564 -1.270637,2.018 4.0038,4.9404 3.88216,2.2937 0.391769,-2.2558 2.438913,-4.5521 1.13001,-6.8557 -0.262027,-0.2267 -0.139635,-0.597 -0.191368,-0.8944 z m 9.607167,3.1398 c -2.354981,-0.403 -3.052666,2.4526 -1.962045,4.0645 0.903753,2.3046 3.322763,3.2089 5.387082,4.1634 2.52115,0.987 3.546346,-2.1309 5.114562,-3.4073 1.057516,-2.0272 -1.680494,-2.8101 -3.110197,-3.2907 -1.767809,-0.644 -3.572224,-1.2093 -5.429402,-1.5299 z m -7.011773,0.1073 c -0.802908,2.0399 -2.400606,4.0407 -2.01031,6.3436 1.057126,1.5095 3.027931,2.7914 4.993917,2.6843 1.750759,-0.054 3.098295,-2.329 1.095647,-3.0583 -1.141141,-1.557 -0.352183,-3.7622 -1.507655,-5.2841 -0.768875,-0.5882 -1.792472,-0.019 -2.571599,-0.6855 z m 6.78172,8.1297 c -1.611926,0.8587 -1.560023,2.4857 0.486375,2.2477 1.284094,0.8291 4.667397,-0.4885 1.73009,-1.1665 -0.740377,-0.3571 -1.492756,-0.6905 -2.216465,-1.0812 z"
       id="path4285"
       inkscape:connector-curvature="0" />
  </g>
</svg>
