<?xml version="1.0" encoding="UTF-8" standalone="no"?>
<!-- Created with Inkscape (http://www.inkscape.org/) -->

<svg
   xmlns:dc="http://purl.org/dc/elements/1.1/"
   xmlns:cc="http://creativecommons.org/ns#"
   xmlns:rdf="http://www.w3.org/1999/02/22-rdf-syntax-ns#"
   xmlns:svg="http://www.w3.org/2000/svg"
   xmlns="http://www.w3.org/2000/svg"
   xmlns:sodipodi="http://sodipodi.sourceforge.net/DTD/sodipodi-0.dtd"
   xmlns:inkscape="http://www.inkscape.org/namespaces/inkscape"
   width="64"
   height="64"
   viewBox="0 0 64.000001 64.000001"
   id="svg4190"
   version="1.1"
   inkscape:version="0.91 r13725"
   sodipodi:docname="basis-cocoa-alt.inkscape.svg">
  <defs
     id="defs4192" />
  <sodipodi:namedview
     id="base"
     pagecolor="#ffffff"
     bordercolor="#666666"
     borderopacity="1.0"
     inkscape:pageopacity="0.0"
     inkscape:pageshadow="2"
     inkscape:zoom="7.9195959"
     inkscape:cx="93.422572"
     inkscape:cy="23.552131"
     inkscape:document-units="px"
     inkscape:current-layer="layer1"
     showgrid="false"
     units="px"
     inkscape:object-paths="true"
     inkscape:object-nodes="false"
     inkscape:snap-smooth-nodes="false"
     inkscape:window-width="1920"
     inkscape:window-height="1027"
     inkscape:window-x="-8"
     inkscape:window-y="-8"
     inkscape:window-maximized="1"
     showguides="false" />
  <metadata
     id="metadata4195">
    <rdf:RDF>
      <cc:Work
         rdf:about="">
        <dc:format>image/svg+xml</dc:format>
        <dc:type
           rdf:resource="http://purl.org/dc/dcmitype/StillImage" />
        <dc:title />
      </cc:Work>
    </rdf:RDF>
  </metadata>
  <g
     inkscape:label="Layer 1"
     inkscape:groupmode="layer"
     id="layer1"
     transform="translate(0,-988.36216)">
    <path
       style="fill:#323232;fill-opacity:1;fill-rule:evenodd;stroke:#323232;stroke-width:1px;stroke-linecap:butt;stroke-linejoin:miter;stroke-opacity:1"
       d="m 6.359629,1022.5288 c 2.0999696,3.8163 5.469953,6.7078 8.455078,9.8112 2.17433,2.3733 4.646182,4.5189 7.622009,5.8244 3.81355,1.8881 8.212348,2.5193 11.666594,5.1375 0.685261,0.5331 2.080894,1.2835 0.313769,0.6421 -3.782415,-0.8875 -7.882373,-0.8635 -11.276141,-2.9958 -3.101914,-1.8155 -5.616523,-4.4381 -8.243157,-6.8538 -3.421448,-3.3708 -6.4701577,-7.1886 -8.5368311,-11.5473"
       id="path4227"
       inkscape:connector-curvature="0" />
    <path
       style="fill:#323232;fill-opacity:1;fill-rule:evenodd;stroke:#323232;stroke-width:1px;stroke-linecap:butt;stroke-linejoin:miter;stroke-opacity:1"
       d="m 19.302734,7.9511719 c -1.061488,-0.042376 -2.037946,0.032646 -2.875,0.3339843 -2.232142,0.8035801 -2.230468,2.4999998 -2.230468,2.4999998 L 11.875,10.697266 11.25,12.75 l 1.785156,0.447266 c 0,0 -0.892857,0.08791 -1.25,1.070312 -0.357143,0.9822 1.429688,5.357744 3.304688,6.964844 0.108629,0.09311 0.644082,0.492346 0.841797,0.65039 3.780056,0.908064 7.654872,2.175294 11.005859,4.789063 0.0085,0.006 0.175824,0.128911 0.175824,0.128911 3.158646,2.3237 6.488053,4.697544 9.392578,7.714844 l 0.0059,0.0098 0.103515,0.111328 0.08984,0.125 0.0039,0.0098 c 0.41168,0.594598 0.786629,1.220555 1.140625,1.859375 4.17356,1.449127 10.517728,2.494237 13.935474,1.744067 3.660715,-0.8036 9.553292,-1.250222 10.267578,-1.607422 C 62.767019,36.410478 63.214286,35.7857 62.5,34.625 c -0.714286,-1.1608 -3.482981,-2.945634 -5.447266,-5.177734 -1.964286,-2.2322 -2.052455,-3.6607 -4.820312,-6.25 -2.767857,-2.5893 -13.035156,-8.75141 -16.785156,-10.53711 -3.75,-1.78574 -7.143136,-3.6604379 -10.357422,-4.0175779 -2.008929,-0.2232187 -4.017962,-0.6207793 -5.78711,-0.6914062 z"
       id="path4209"
       inkscape:connector-curvature="0"
       sodipodi:nodetypes="sscccccscccccccccccccssss"
       transform="translate(0,988.36216)" />
    <path
       style="fill:none;fill-opacity:0.47058824;fill-rule:evenodd;stroke:#323232;stroke-width:1px;stroke-linecap:butt;stroke-linejoin:round;stroke-opacity:1"
       d="m 11.428571,1011.2907 c 5.227749,1.0815 10.707491,2.2792 14.918922,5.78 3.098514,2.3229 6.346866,4.5581 8.914582,7.4781 2.191395,3.2249 3.352293,7.1838 2.925373,11.0855 -0.148562,2.3544 0.553413,4.6559 1.737516,6.6663 1.020162,1.4815 0.222595,5.2159 -1.947531,3.9153 -2.844038,-2.1494 -5.638413,-4.5202 -9.109093,-5.5946 -4.194962,-1.4095 -8.568592,-2.8786 -11.80068,-6.0505 -2.832463,-2.7862 -5.682207,-5.5713 -8.3038829,-8.5596 -2.7576631,-3.168 -4.4746371,-7.3667 -4.3669091,-11.5866 0.6158645,-2.445 3.5070399,-3.521 5.800641,-3.5032 0.429251,0.038 0.856558,0.1519 1.231062,0.3693 z"
       id="path4213"
       inkscape:connector-curvature="0" />
    <path
       style="fill:#323232;fill-opacity:1;fill-rule:evenodd;stroke:#323232;stroke-width:0.5;stroke-linecap:round;stroke-linejoin:round;stroke-miterlimit:4;stroke-dasharray:none;stroke-opacity:1"
       d="m 15.976562,1014.2782 c -0.441654,-0.137 0.298949,0.8995 0.466654,0.591 1.35686,-0.1918 0.155179,-0.6971 -0.466654,-0.591 z m -1.49414,0.5801 c -1.1426,0.2005 -2.453644,0.4968 -3.248901,1.4008 -0.769847,0.7361 -1.2834291,1.7991 0.01257,2.3316 0.924697,1.0487 1.426242,-1.2925 2.381862,-1.6033 0.589472,-0.764 2.694619,-1.0905 1.29692,-2.0741 -0.430102,0.2005 0.0123,-0.3422 -0.442451,-0.055 z m 3.404297,0.5019 c -0.780464,0.096 -1.399581,0.5792 -0.292336,0.6698 1.06278,-0.3006 1.399479,0.8813 2.401711,0.3595 -0.48723,-0.7067 -1.239328,-1.1233 -2.109375,-1.0293 z m -1.712891,1.2031 c -1.139744,0.3395 -2.000171,1.2719 -2.874529,2.0421 -0.824419,0.5265 -1.715475,2.3654 -0.602033,2.7665 1.215463,-0.5106 2.606692,-0.6329 3.656729,-1.5148 0.807261,-0.7161 1.957329,-1.5156 1.915536,-2.7078 -0.541159,-0.2141 -1.474888,-0.1072 -2.095703,-0.586 z m 4.541016,0.6836 c -0.99257,-0.1948 -1.872502,0.5914 -1.655984,1.3483 0.894012,0.041 2.177528,1.7823 2.09073,0.1894 0.207209,-0.6446 1.537117,-0.4637 0.598457,-1.147 -0.230054,-0.3218 -0.679634,-0.3422 -1.033203,-0.3907 z m -11.0351565,1.1973 c -1.3059363,0.4556 -1.0122899,1.9598 -0.7910156,3.0176 -0.01006,-0.9989 0.6502444,-1.9871 1.3222661,-2.4571 -0.202838,-0.1619 -0.3854923,-0.3448 -0.5312505,-0.5605 z m 13.5195315,0.4668 c -1.022264,-0.2262 -1.926663,1.1593 -0.438259,0.959 0.569241,0.5112 1.859376,0.961 2.221462,0.3886 -0.074,-0.957 -0.915214,-1.3726 -1.783203,-1.3476 z m -12.984375,0.098 c -0.02796,0.1649 0.225818,0.1 0,0 z m 8.101562,0.3655 c -0.789425,0.9112 -1.766194,1.7317 -2.919922,2.1211 -0.173679,0.7135 -0.465882,2.2716 0.744141,1.5 0.748968,-1.0393 1.680534,-1.9308 2.90439,-2.3959 0.637081,-0.2618 1.332185,-0.5815 0.261626,-0.8151 -0.327053,-0.1437 -0.654407,-0.2878 -0.990235,-0.4101 z m -7.708984,0.6562 c -0.05925,0.3606 0.241401,0.8594 0.321872,1.2736 0.18698,0.6015 0.37396,1.203 0.56094,1.8046 0.843488,-1.0014 -0.574132,-1.7754 -0.33789,-2.9532 -0.181804,-0.042 -0.353475,-0.1271 -0.544922,-0.125 z m 0.882812,3.0782 c -0.316406,-1.0131 -0.632812,-2.0261 -0.949218,-3.0391 -0.8894405,0.8422 -0.7980811,2.3736 -0.49167,3.4766 0.269273,0.4786 0.999422,2.0058 1.033169,0.7054 0.110145,-0.3896 0.255712,-0.7683 0.407719,-1.1429 z m 10.90625,-2.3301 c -1.421404,-0.1333 -2.599406,0.4808 -3.791773,1.1877 -0.891523,0.6515 -2.187422,1.5916 -1.716946,2.8055 0.309887,1.4086 1.65257,-0.7264 2.337882,-1.0461 1.014312,-0.7178 2.238937,-1.4499 3.530212,-1.2752 0.555807,-0.7515 0.614573,-1.2421 -0.359375,-1.6719 z m 2.767578,0.6172 c -0.705011,-0.01 -1.307686,-0.061 -1.115234,0.7734 -0.660928,0.8343 1.11343,1.1957 1.793753,1.4898 0.276372,-0.4958 1.298096,-1.002 1.55195,-1.1812 -0.672714,-0.4878 -1.308121,-1.2528 -2.230469,-1.082 z m -10.824218,0.4414 c -1.250317,0.1342 -1.875042,0.9298 -2.147942,2.1077 -0.51369,1.1751 -0.55171,2.8058 0.519036,3.6774 0.0041,-1.2749 -0.433368,-2.7862 0.637524,-3.7785 0.880448,-0.627 0.967098,-0.9524 0.991382,-2.0066 z m 8.207031,1.5351 c -1.459613,0.1 -2.665322,1.0333 -3.707002,1.9801 -1.039781,0.6261 -0.314092,2.7978 0.942706,2.5767 1.059273,-1.0677 1.932394,-2.3253 3.115967,-3.2783 0.431526,-0.5191 1.652512,-0.7523 0.437726,-1.1379 -0.250655,-0.1177 -0.514224,-0.1582 -0.789397,-0.1406 z m 5.404297,0.072 c -0.742452,0 -1.46012,0.6997 -0.482915,1.0737 1.170427,0.6014 -0.360413,2.0098 1.033478,2.0712 0.773562,0.457 2.28956,1.085 2.058839,-0.4292 -0.366594,-1.1325 -1.031573,-2.6538 -2.399148,-2.7091 l -0.210254,-0.01 z m -13.189453,0.4961 c -1.3433,0.6782 -1.202465,2.1826 -1.068745,3.4426 -0.261187,0.5152 0.395859,2.1433 0.754292,1.3523 0.372091,-1.1484 0.817882,-2.3017 1.669922,-3.1875 -0.334492,-0.7156 -0.06782,-1.6572 -1.105469,-1.416 l -0.12625,-0.084 -0.12375,-0.1071 z m 10.324219,0.582 c -1.448108,0.4584 -2.406819,1.7302 -3.413029,2.7901 -0.577926,0.7351 -1.613862,1.3804 -0.322777,1.9679 1.330015,0.6812 1.788142,-1.4054 2.961398,-1.7223 0.78373,-0.7121 2.631862,-1.0114 2.571949,-2.1843 -0.407117,-0.659 -1.112022,-0.6969 -1.797541,-0.8514 z m -8.279297,1.7598 c -0.900163,0.9729 -1.251799,2.2819 -1.640625,3.5137 0.564659,0.3426 1.385773,1.6399 1.186133,0.2486 -0.295044,-1.261 1.738374,-1.7233 1.183308,-2.7133 -0.269356,-0.7462 0.164347,-1.0472 -0.728816,-1.049 z m 10.171875,0.7676 c -1.083686,0.8776 -2.514065,1.3403 -3.4375,2.4355 -0.371339,1.3351 0.70567,2.2515 2.005278,1.9925 1.347198,0.2675 2.708531,-0.096 3.369441,-1.3833 0.902655,-0.678 1.350948,-2.0594 -0.100101,-2.2996 -0.607149,-0.261 -1.218132,-0.5135 -1.837118,-0.7451 z m 4.246093,0.3593 c -0.768121,0.4987 -0.595183,1.5823 0.436508,1.0876 0.525932,-0.017 -0.321365,-0.8933 -0.436508,-1.0876 z m -12.689453,1.1133 c -1.126664,0.5546 -1.318602,1.7568 -1.267371,2.8863 -0.142778,0.907 0.882534,1.7697 1.380653,2.2055 0.180605,-1.3255 0.521172,-2.8586 1.804549,-3.5469 0.0073,-0.6537 -1.256847,-1.3143 -1.917831,-1.5449 z m 1.431641,0.377 c -0.06162,0.01 0.02545,0.054 0,0 z m 12.382812,0.4433 c -1.315592,0 -2.190512,0.4601 -2.910954,1.5962 -0.78008,0.7085 1.267085,0.5595 1.789366,0.9446 1.0027,0.1799 2.389008,1.4511 2.624479,-0.2073 0.989408,-1.0445 -0.742836,-1.8995 -1.502891,-2.3335 z m -9.771484,0.9102 c -1.311453,0.1109 -2.529621,1.0501 -2.739844,2.4387 -0.419195,1.1062 -0.377151,2.2432 0.941835,2.5592 0.659786,0.3581 1.380968,0.954 1.228869,-0.2029 0.12689,-1.158 1.014662,-2.5027 1.000761,-3.3977 -0.40628,-0.359 -0.421473,-0.899 -0.431621,-1.3973 z m 5.791016,1.8926 c -0.713806,0.4407 -1.852164,0.029 -1.453235,1.2713 0.02653,1.4591 1.137227,2.6774 2.471497,3.1494 1.07717,0.7208 2.178044,1.1629 2.845878,-0.2116 0.589608,-0.8971 2.178382,-1.2662 1.115552,-2.4835 -0.925967,-0.7076 -2.320393,-0.9651 -3.469745,-1.3787 -0.496927,-0.1409 -0.999213,-0.2674 -1.509947,-0.3469 z m -4.226563,0.064 c -0.768309,1.0137 -0.900597,2.3193 -1.272872,3.5014 -0.108863,1.2367 1.873106,1.3787 2.755721,2.0157 0.685042,0.3894 1.767742,-1.0507 1.663831,-1.4114 -1.169757,-0.8533 -1.40199,-2.4676 -1.332227,-3.8225 -0.616435,-0.055 -1.267015,0.076 -1.814453,-0.2832 z m 4.087891,4.9004 c -0.533174,0.5768 -1.510591,1.2335 -0.17793,1.22 0.591909,0.2051 2.694042,0.5292 2.251736,-0.2114 -0.694811,-0.3246 -1.390617,-0.6577 -2.073806,-1.0086 z"
       id="path4285"
       inkscape:connector-curvature="0"
       sodipodi:nodetypes="cccccccccccccccccccccccccccccccccccccccccccccccccccccccccccccccccccccccccccccccccccccccccccccccccccccccccccccccccccccccccccccccccccccccccccccc" />
  </g>
</svg>
