<?xml version="1.0" encoding="UTF-8" standalone="no"?>
<!-- Created with Inkscape (http://www.inkscape.org/) -->

<svg
   xmlns:dc="http://purl.org/dc/elements/1.1/"
   xmlns:cc="http://creativecommons.org/ns#"
   xmlns:rdf="http://www.w3.org/1999/02/22-rdf-syntax-ns#"
   xmlns:svg="http://www.w3.org/2000/svg"
   xmlns="http://www.w3.org/2000/svg"
   xmlns:sodipodi="http://sodipodi.sourceforge.net/DTD/sodipodi-0.dtd"
   xmlns:inkscape="http://www.inkscape.org/namespaces/inkscape"
   width="64"
   height="64"
   viewBox="0 0 63.999999 64.000001"
   id="svg2"
   version="1.1"
   inkscape:version="0.91 r13725"
   sodipodi:docname="iceable.inkscape.svg">
  <defs
     id="defs4" />
  <sodipodi:namedview
     id="base"
     pagecolor="#ffffff"
     bordercolor="#666666"
     borderopacity="1.0"
     inkscape:pageopacity="0.0"
     inkscape:pageshadow="2"
     inkscape:zoom="16"
     inkscape:cx="25.320629"
     inkscape:cy="35.511369"
     inkscape:document-units="px"
     inkscape:current-layer="layer1"
     showgrid="false"
     units="px"
     showguides="true"
     inkscape:guide-bbox="true"
     inkscape:window-width="1920"
     inkscape:window-height="1027"
     inkscape:window-x="-8"
     inkscape:window-y="-8"
     inkscape:window-maximized="1"
     inkscape:object-paths="true"
     inkscape:snap-center="true">
    <sodipodi:guide
       position="32,32"
       orientation="1,0"
       id="guide4136"
       inkscape:label=""
       inkscape:color="rgb(0,0,255)" />
    <sodipodi:guide
       position="32,32"
       orientation="0,1"
       id="guide4138"
       inkscape:label=""
       inkscape:color="rgb(0,0,255)" />
    <sodipodi:guide
       position="55.59627,52.679456"
       orientation="0,1"
       id="guide4142"
       inkscape:label=""
       inkscape:color="rgb(0,0,255)" />
    <sodipodi:guide
       position="32,32"
       orientation="-0.8660254,0.5"
       id="guide4149"
       inkscape:label=""
       inkscape:color="rgb(0,0,255)" />
    <sodipodi:guide
       position="40.240504,60.91996"
       orientation="1,0"
       id="guide4173" />
  </sodipodi:namedview>
  <metadata
     id="metadata7">
    <rdf:RDF>
      <cc:Work
         rdf:about="">
        <dc:format>image/svg+xml</dc:format>
        <dc:type
           rdf:resource="http://purl.org/dc/dcmitype/StillImage" />
        <dc:title></dc:title>
      </cc:Work>
    </rdf:RDF>
  </metadata>
  <g
     inkscape:label="Layer 1"
     inkscape:groupmode="layer"
     id="layer1"
     transform="translate(0,-988.36216)">
    <path
       id="path4182"
       style="fill:none;fill-rule:evenodd;stroke:#000000;stroke-width:4.5;stroke-linecap:butt;stroke-linejoin:miter;stroke-miterlimit:4;stroke-dasharray:none;stroke-opacity:1"
       d="m 40.240505,1041.0416 -8.240504,-8.2405 m 0,-12.439 0,20.6795 8.306795,8.3068 M 23.759496,999.68271 32,1007.9232 m 0,12.439 0,-20.67949 -8.306795,-8.3068 m 0.06629,49.66569 L 32,1032.8011 m 0,-12.439 0,20.6795 -8.306795,8.3068 m 16.5473,-49.66569 -8.240504,8.24049 m 0,12.439 0,-20.67949 8.306795,-8.3068" />
    <path
       d="m 54.029177,1023.5654 -11.256734,3.0162 m -10.77249,-6.2195 17.908972,10.3398 11.347298,-3.0405 m -51.2853995,-10.5025 11.2567255,-3.0162 m 10.77249,6.2195 -17.908963,-10.3398 -11.3472978,3.0405 m 43.0448938,24.7755 -3.016229,-11.2568 m -10.77249,-6.2195 17.908972,10.3398 3.040502,11.3473 m -34.738099,-39.1633 3.016222,11.2568 m 10.77249,6.2195 -17.908964,-10.3398 -3.040502,-11.34726"
       style="fill:none;fill-rule:evenodd;stroke:#000000;stroke-width:4.5;stroke-linecap:butt;stroke-linejoin:miter;stroke-miterlimit:4;stroke-dasharray:none;stroke-opacity:1"
       id="path4185"
       inkscape:connector-curvature="0" />
    <path
       inkscape:connector-curvature="0"
       id="path4187"
       style="fill:none;fill-rule:evenodd;stroke:#000000;stroke-width:4.5;stroke-linecap:butt;stroke-linejoin:miter;stroke-miterlimit:4;stroke-dasharray:none;stroke-opacity:1"
       d="m 45.788668,1002.886 -3.016261,11.2567 m -10.77249,6.2195 17.909015,-10.3397 3.040499,-11.34735 m -34.738131,39.16325 3.016257,-11.2567 m 10.77249,-6.2195 -17.909011,10.3397 -3.040499,11.3473 m 42.978659,-24.8903 -11.256789,-3.0162 m -10.77249,6.2195 17.909015,-10.3397 11.347302,3.0404 m -51.2854627,10.5025 11.2567857,3.0163 m 10.77249,-6.2195 -17.909011,10.3397 -11.3472668,-3.0405" />
  </g>
</svg>
