<?xml version="1.0" encoding="UTF-8" standalone="no"?>
<!-- Created with Inkscape (http://www.inkscape.org/) -->

<svg
   xmlns:dc="http://purl.org/dc/elements/1.1/"
   xmlns:cc="http://creativecommons.org/ns#"
   xmlns:rdf="http://www.w3.org/1999/02/22-rdf-syntax-ns#"
   xmlns:svg="http://www.w3.org/2000/svg"
   xmlns="http://www.w3.org/2000/svg"
   xmlns:sodipodi="http://sodipodi.sourceforge.net/DTD/sodipodi-0.dtd"
   xmlns:inkscape="http://www.inkscape.org/namespaces/inkscape"
   width="64"
   height="64"
   viewBox="0 0 64.000001 64.000001"
   id="svg2"
   version="1.1"
   inkscape:version="0.91 r13725"
   sodipodi:docname="moment.aftermeal.inkscape.svg">
  <defs
     id="defs4" />
  <sodipodi:namedview
     id="base"
     pagecolor="#ffffff"
     bordercolor="#666666"
     borderopacity="1.0"
     inkscape:pageopacity="0.0"
     inkscape:pageshadow="2"
     inkscape:zoom="11.2"
     inkscape:cx="4.3043937"
     inkscape:cy="29.500051"
     inkscape:document-units="px"
     inkscape:current-layer="layer1"
     showgrid="false"
     units="px"
     showguides="true"
     inkscape:guide-bbox="true"
     inkscape:snap-center="true"
     inkscape:snap-others="true"
     inkscape:window-width="1920"
     inkscape:window-height="1027"
     inkscape:window-x="-8"
     inkscape:window-y="-8"
     inkscape:window-maximized="1"
     inkscape:object-paths="true"
     inkscape:snap-intersection-paths="true"
     inkscape:snap-nodes="true"
     inkscape:snap-bbox="true"
     inkscape:object-nodes="true"
     inkscape:bbox-paths="true"
     inkscape:snap-to-guides="true"
     inkscape:snap-smooth-nodes="true"
     inkscape:snap-midpoints="true" />
  <metadata
     id="metadata7">
    <rdf:RDF>
      <cc:Work
         rdf:about="">
        <dc:format>image/svg+xml</dc:format>
        <dc:type
           rdf:resource="http://purl.org/dc/dcmitype/StillImage" />
        <dc:title />
      </cc:Work>
    </rdf:RDF>
  </metadata>
  <g
     inkscape:label="Layer 1"
     inkscape:groupmode="layer"
     id="layer1"
     transform="translate(0,-988.36216)">
    <path
       style="color:#000000;font-style:normal;font-variant:normal;font-weight:normal;font-stretch:normal;font-size:medium;line-height:normal;font-family:sans-serif;text-indent:0;text-align:start;text-decoration:none;text-decoration-line:none;text-decoration-style:solid;text-decoration-color:#000000;letter-spacing:normal;word-spacing:normal;text-transform:none;direction:ltr;block-progression:tb;writing-mode:lr-tb;baseline-shift:baseline;text-anchor:start;white-space:normal;clip-rule:nonzero;display:inline;overflow:visible;visibility:visible;opacity:1;isolation:auto;mix-blend-mode:normal;color-interpolation:sRGB;color-interpolation-filters:linearRGB;solid-color:#000000;solid-opacity:1;fill:#000000;fill-opacity:1;fill-rule:evenodd;stroke:none;stroke-width:4.33799982;stroke-linecap:round;stroke-linejoin:round;stroke-miterlimit:4;stroke-dasharray:none;stroke-dashoffset:0;stroke-opacity:1;color-rendering:auto;image-rendering:auto;shape-rendering:auto;text-rendering:auto;enable-background:accumulate"
       d="m 32,990.36133 c -16.542965,0 -30,13.45707 -30,29.99997 0,16.543 13.457035,30.002 30,30.002 16.542965,0 30,-13.459 30,-30.002 0,-16.5429 -13.457035,-29.99997 -30,-29.99997 z m 0,4.33789 c 14.198536,0 25.662109,11.46358 25.662109,25.66208 0,14.1986 -11.463573,25.6621 -25.662109,25.6621 -14.198536,0 -25.6621094,-11.4635 -25.6621094,-25.6621 0,-14.1985 11.4635734,-25.66208 25.6621094,-25.66208 z"
       id="path4136"
       inkscape:connector-curvature="0" />
    <path
       style="color:#000000;font-style:normal;font-variant:normal;font-weight:normal;font-stretch:normal;font-size:medium;line-height:normal;font-family:sans-serif;text-indent:0;text-align:start;text-decoration:none;text-decoration-line:none;text-decoration-style:solid;text-decoration-color:#000000;letter-spacing:normal;word-spacing:normal;text-transform:none;direction:ltr;block-progression:tb;writing-mode:lr-tb;baseline-shift:baseline;text-anchor:start;white-space:normal;clip-rule:nonzero;display:inline;overflow:visible;visibility:visible;opacity:1;isolation:auto;mix-blend-mode:normal;color-interpolation:sRGB;color-interpolation-filters:linearRGB;solid-color:#000000;solid-opacity:1;fill:#000000;fill-opacity:1;fill-rule:evenodd;stroke:none;stroke-width:4.5;stroke-linecap:round;stroke-linejoin:miter;stroke-miterlimit:4;stroke-dasharray:none;stroke-dashoffset:0;stroke-opacity:1;color-rendering:auto;image-rendering:auto;shape-rendering:auto;text-rendering:auto;enable-background:accumulate"
       d="m 54.124678,990.96556 a 2.250225,2.250225 0 0 0 -3.17922,0.047 l -20.04485,20.04484 c -0.2352,-0.1547 -0.4823,-0.2975 -0.7554,-0.4212 -0.974,-0.4412 -2.2827,-0.4237 -3.3325,0.046 -2.0998,0.9386 -3.9861,2.9696 -7.825201,6.8086 a 1.750175,1.750175 0 1 0 2.474901,2.4749 c 3.8274,-3.8274 5.9828,-5.7321 6.7783,-6.0877 0.3978,-0.1779 0.2516,-0.1475 0.4613,-0.053 0.016,0.01 0.062,0.046 0.082,0.057 l -6.7037,6.7037 a 1.750175,1.750175 0 1 0 2.4748,2.4749 l 6.7023,-6.7024 c 0.011,0.019 0.05,0.066 0.057,0.082 0.095,0.2096 0.1241,0.062 -0.054,0.4599 -0.3556,0.7956 -2.259,2.9523 -6.0864,6.7797 a 1.750175,1.750175 0 1 0 2.4749,2.4749 c 3.839,-3.8391 5.8686,-5.7268 6.8073,-7.8266 0.4693,-1.0498 0.4867,-2.3584 0.046,-3.3325 -0.1234,-0.2724 -0.2671,-0.5181 -0.4212,-0.7527 l 20.04644,-20.04757 a 2.250225,2.250225 0 0 0 -0.003,-3.22893 z m 6.56698,6.56698 a 2.250225,2.250225 0 0 0 -3.1806,0.0456 l -29.21925,29.21926 a 2.250225,2.250225 0 0 0 2.6019,3.6019 c 0,0 2.1429,-1.0786 4.6736,-2.5329 2.5306,-1.4543 5.41,-3.1975 7.2851,-5.0174 3.5803,-3.4751 4.5917,-8.389 4.7025,-8.9507 l 13.13813,-13.1381 a 2.250225,2.250225 0 0 0 -0.001,-3.22763 z"
       id="path4184"
       inkscape:connector-curvature="0" />
  </g>
</svg>
