<?xml version="1.0" encoding="UTF-8" standalone="no"?>
<!-- Created with Inkscape (http://www.inkscape.org/) -->

<svg
   xmlns:dc="http://purl.org/dc/elements/1.1/"
   xmlns:cc="http://creativecommons.org/ns#"
   xmlns:rdf="http://www.w3.org/1999/02/22-rdf-syntax-ns#"
   xmlns:svg="http://www.w3.org/2000/svg"
   xmlns="http://www.w3.org/2000/svg"
   xmlns:sodipodi="http://sodipodi.sourceforge.net/DTD/sodipodi-0.dtd"
   xmlns:inkscape="http://www.inkscape.org/namespaces/inkscape"
   height="64"
   width="64"
   viewBox="0 0 64.000001 64.000001"
   id="svg2"
   version="1.1"
   inkscape:version="0.91 r13725"
   sodipodi:docname="moment.morning.inkscape.svg">
  <defs
     id="defs8" />
  <sodipodi:namedview
     pagecolor="#ffffff"
     bordercolor="#666666"
     borderopacity="1"
     objecttolerance="10"
     gridtolerance="10"
     guidetolerance="10"
     inkscape:pageopacity="0"
     inkscape:pageshadow="2"
     inkscape:window-width="1855"
     inkscape:window-height="1056"
     id="namedview6"
     showgrid="false"
     units="px"
     showguides="true"
     inkscape:guide-bbox="true"
     inkscape:object-paths="false"
     inkscape:snap-smooth-nodes="true"
     inkscape:snap-nodes="true"
     inkscape:snap-bbox="false"
     inkscape:snap-bbox-midpoints="true"
     inkscape:snap-object-midpoints="true"
     inkscape:snap-center="true"
     inkscape:zoom="7.1762364"
     inkscape:cx="21.740976"
     inkscape:cy="23.653827"
     inkscape:window-x="65"
     inkscape:window-y="24"
     inkscape:window-maximized="1"
     inkscape:current-layer="svg2"
     inkscape:snap-to-guides="true"
     inkscape:object-nodes="false"
     inkscape:snap-others="true" />
  <metadata
     id="metadata4">
    <rdf:RDF>
      <cc:Work
         rdf:about="">
        <dc:format>image/svg+xml</dc:format>
        <dc:type
           rdf:resource="http://purl.org/dc/dcmitype/StillImage" />
        <dc:title></dc:title>
      </cc:Work>
    </rdf:RDF>
  </metadata>
  <path
     style="fill:#000000;fill-opacity:1;stroke-width:1;stroke-linejoin:round;stroke-miterlimit:4;stroke-dasharray:none"
     inkscape:transform-center-x="20.049793"
     inkscape:transform-center-y="-26.05231"
     d="m 16.124034,-16.403547 a 13.02595,8.2220144 0 0 1 -6.512975,7.1204731 13.02595,8.2220144 0 0 1 -13.0259506,-10e-8 13.02595,8.2220144 0 0 1 -6.5129749,-7.120474"
     id="path3197"
     transform="matrix(0.78801075,-0.61566148,-0.61566148,-0.78801075,0,0)" />
  <path
     style="color:#000000;font-style:normal;font-variant:normal;font-weight:normal;font-stretch:normal;font-size:medium;line-height:normal;font-family:sans-serif;text-indent:0;text-align:start;text-decoration:none;text-decoration-line:none;text-decoration-style:solid;text-decoration-color:#000000;letter-spacing:normal;word-spacing:normal;text-transform:none;direction:ltr;block-progression:tb;writing-mode:lr-tb;baseline-shift:baseline;text-anchor:start;white-space:normal;clip-rule:nonzero;display:inline;overflow:visible;visibility:visible;opacity:1;isolation:auto;mix-blend-mode:normal;color-interpolation:sRGB;color-interpolation-filters:linearRGB;solid-color:#000000;solid-opacity:1;fill:#000000;fill-opacity:1;fill-rule:nonzero;stroke:none;stroke-width:4.95010996;stroke-linecap:butt;stroke-linejoin:round;stroke-miterlimit:4;stroke-dasharray:none;stroke-dashoffset:0;stroke-opacity:1;color-rendering:auto;image-rendering:auto;shape-rendering:auto;text-rendering:auto;enable-background:accumulate"
     d="m 32,8.3417969 c -15.205423,0 -27.5839844,12.3785611 -27.5839844,27.5839841 0,15.205423 12.3785614,27.585938 27.5839844,27.585938 15.205423,0 27.583984,-12.380515 27.583984,-27.585938 C 59.583984,20.720358 47.205423,8.3417969 32,8.3417969 Z m 0,4.9492191 c 12.530185,0 22.634766,10.10458 22.634766,22.634765 C 54.634766,48.455966 44.530185,58.560547 32,58.560547 19.469815,58.560547 9.3652344,48.455966 9.3652344,35.925781 9.3652344,23.395596 19.469815,13.291016 32,13.291016 Z"
     id="path3199"
     inkscape:connector-curvature="0" />
  <path
     style="color:#000000;font-style:normal;font-variant:normal;font-weight:normal;font-stretch:normal;font-size:medium;line-height:normal;font-family:sans-serif;text-indent:0;text-align:start;text-decoration:none;text-decoration-line:none;text-decoration-style:solid;text-decoration-color:#000000;letter-spacing:normal;word-spacing:normal;text-transform:none;direction:ltr;block-progression:tb;writing-mode:lr-tb;baseline-shift:baseline;text-anchor:start;white-space:normal;clip-rule:nonzero;display:inline;overflow:visible;visibility:visible;opacity:1;isolation:auto;mix-blend-mode:normal;color-interpolation:sRGB;color-interpolation-filters:linearRGB;solid-color:#000000;solid-opacity:1;fill:#000000;fill-opacity:1;fill-rule:evenodd;stroke:none;stroke-width:4.95010996;stroke-linecap:round;stroke-linejoin:miter;stroke-miterlimit:4;stroke-dasharray:none;stroke-dashoffset:0;stroke-opacity:1;color-rendering:auto;image-rendering:auto;shape-rendering:auto;text-rendering:auto;enable-background:accumulate"
     d="m 31.962891,17.851562 c -1.486021,-0.02444 -2.6267,1.437617 -2.4375,2.867923 0,4.848062 0,9.696125 0,14.544187 -1.417565,2.470504 -2.863798,4.92539 -4.263304,7.405732 -0.78028,1.549571 0.536797,3.576814 2.269737,3.493574 1.151159,0.04146 1.999828,-0.841644 2.45852,-1.80589 1.416094,-2.443198 2.814881,-4.898367 4.242664,-7.3335 0.416175,-0.950374 0.181138,-2.008964 0.241608,-3.016152 -0.0059,-4.631072 0.0118,-9.262569 -0.0089,-13.893375 -0.08669,-1.264964 -1.235052,-2.303476 -2.502828,-2.262499 z"
     id="path3222"
     inkscape:connector-curvature="0" />
  <path
     transform="matrix(0.78801075,0.61566148,0.61566148,-0.78801075,0,0)"
     style="fill:#000000;fill-opacity:1;stroke-width:1;stroke-linejoin:round;stroke-miterlimit:4;stroke-dasharray:none"
     inkscape:transform-center-x="-20.049794"
     inkscape:transform-center-y="-26.052309"
     d="m 60.360557,22.998787 a 13.02595,8.2220144 0 0 1 -6.512976,7.120473 13.02595,8.2220144 0 0 1 -13.02595,0 13.02595,8.2220144 0 0 1 -6.512975,-7.120473"
     id="path3233" />
</svg>
