<?xml version="1.0" encoding="UTF-8" standalone="no"?>
<!-- Created with Inkscape (http://www.inkscape.org/) -->

<svg
   xmlns:dc="http://purl.org/dc/elements/1.1/"
   xmlns:cc="http://creativecommons.org/ns#"
   xmlns:rdf="http://www.w3.org/1999/02/22-rdf-syntax-ns#"
   xmlns:svg="http://www.w3.org/2000/svg"
   xmlns="http://www.w3.org/2000/svg"
   xmlns:sodipodi="http://sodipodi.sourceforge.net/DTD/sodipodi-0.dtd"
   xmlns:inkscape="http://www.inkscape.org/namespaces/inkscape"
   width="64"
   height="64"
   viewBox="0 0 64.000001 64.000001"
   id="svg2"
   version="1.1"
   inkscape:version="0.91 r13725"
   sodipodi:docname="prep.temperature.svg">
  <defs
     id="defs4" />
  <sodipodi:namedview
     id="base"
     pagecolor="#ffffff"
     bordercolor="#666666"
     borderopacity="1.0"
     inkscape:pageopacity="0.0"
     inkscape:pageshadow="2"
     inkscape:zoom="5.6"
     inkscape:cx="29.97428"
     inkscape:cy="22.653047"
     inkscape:document-units="px"
     inkscape:current-layer="layer1"
     showgrid="false"
     units="px"
     showguides="true"
     inkscape:guide-bbox="true"
     inkscape:object-paths="false"
     inkscape:snap-bbox="true"
     inkscape:object-nodes="false"
     inkscape:snap-smooth-nodes="true"
     inkscape:snap-bbox-edge-midpoints="false"
     inkscape:snap-to-guides="true"
     inkscape:snap-global="true"
     inkscape:window-width="1920"
     inkscape:window-height="1027"
     inkscape:window-x="-8"
     inkscape:window-y="-8"
     inkscape:window-maximized="1"
     inkscape:snap-nodes="false"
     inkscape:snap-bbox-midpoints="true" />
  <metadata
     id="metadata7">
    <rdf:RDF>
      <cc:Work
         rdf:about="">
        <dc:format>image/svg+xml</dc:format>
        <dc:type
           rdf:resource="http://purl.org/dc/dcmitype/StillImage" />
        <dc:title></dc:title>
      </cc:Work>
    </rdf:RDF>
  </metadata>
  <g
     inkscape:label="Layer 1"
     inkscape:groupmode="layer"
     id="layer1"
     transform="translate(0,-988.36216)">
    <path
       style="fill:none;fill-rule:evenodd;stroke:#000000;stroke-width:4.5;stroke-linecap:butt;stroke-linejoin:miter;stroke-miterlimit:4;stroke-dasharray:none;stroke-opacity:1"
       d="M 32 2.75 C 32 2.75 25.751874 2.6556919 25.767578 8.9824219 C 25.781532 14.605426 25.770164 33.914486 25.767578 38.759766 C 22.313572 40.866616 20 44.658151 20 49 C 20 55.6274 25.372583 61 32 61 C 38.627417 61 44 55.6274 44 49 C 44 44.658151 41.686428 40.866616 38.232422 38.759766 C 38.229836 33.914486 38.218468 14.605426 38.232422 8.9824219 C 38.248126 2.6556919 32 2.75 32 2.75 z "
       transform="translate(0,988.36216)"
       id="path4159" />
    <path
       style="fill:#000000;fill-opacity:1;fill-rule:evenodd;stroke:none;stroke-width:2.25000525;stroke-linecap:butt;stroke-linejoin:miter;stroke-miterlimit:4;stroke-dasharray:none;stroke-opacity:1"
       d="M 32 24.904297 C 32 24.904297 30.039922 24.874275 30.044922 26.859375 C 30.049056 28.53405 30.045911 38.538225 30.044922 42.179688 C 27.075778 43.029459 24.900391 45.757846 24.900391 49 C 24.900391 52.921 28.078939 56.099609 32 56.099609 C 35.921062 56.099609 39.099609 52.921 39.099609 49 C 39.099609 45.757846 36.924222 43.029459 33.955078 42.179688 C 33.954068 38.538225 33.95086 28.53405 33.955078 26.859375 C 33.960006 24.874975 32 24.904297 32 24.904297 z "
       transform="translate(0,988.36216)"
       id="path4182" />
  </g>
</svg>
