<?xml version="1.0" encoding="UTF-8" standalone="no"?>
<!-- Created with Inkscape (http://www.inkscape.org/) -->

<svg
   xmlns:dc="http://purl.org/dc/elements/1.1/"
   xmlns:cc="http://creativecommons.org/ns#"
   xmlns:rdf="http://www.w3.org/1999/02/22-rdf-syntax-ns#"
   xmlns:svg="http://www.w3.org/2000/svg"
   xmlns="http://www.w3.org/2000/svg"
   xmlns:sodipodi="http://sodipodi.sourceforge.net/DTD/sodipodi-0.dtd"
   xmlns:inkscape="http://www.inkscape.org/namespaces/inkscape"
   width="64"
   height="64"
   viewBox="0 0 64.000001 64.000001"
   id="svg4698"
   version="1.1"
   inkscape:version="0.91 r13725"
   sodipodi:docname="random.inkscape.svg">
  <sodipodi:namedview
     id="base"
     pagecolor="#ffffff"
     bordercolor="#666666"
     borderopacity="1.0"
     inkscape:pageopacity="0.0"
     inkscape:pageshadow="2"
     inkscape:zoom="4"
     inkscape:cx="45.650257"
     inkscape:cy="26.833393"
     inkscape:document-units="px"
     inkscape:current-layer="layer1"
     showgrid="false"
     units="px"
     inkscape:snap-object-midpoints="false"
     showguides="true"
     inkscape:guide-bbox="true"
     inkscape:snap-others="false"
     inkscape:object-paths="true"
     inkscape:window-width="958"
     inkscape:window-height="1018"
     inkscape:window-x="953"
     inkscape:window-y="0"
     inkscape:window-maximized="0" />
  <defs
     id="defs4700" />
  <metadata
     id="metadata4703">
    <rdf:RDF>
      <cc:Work
         rdf:about="">
        <dc:format>image/svg+xml</dc:format>
        <dc:type
           rdf:resource="http://purl.org/dc/dcmitype/StillImage" />
        <dc:title></dc:title>
      </cc:Work>
    </rdf:RDF>
  </metadata>
  <g
     transform="translate(0,-988.36216)"
     id="layer1"
     inkscape:groupmode="layer"
     inkscape:label="Layer 1">
    <path
       sodipodi:nodetypes="cccccccccsssssssssssssssssssssssss"
       inkscape:connector-curvature="0"
       id="rect4706"
       d="m 2.8687017,1029.586 c 0.028261,1.229 0.7239925,2.6776 1.5671156,3.2442 0,0 25.0167167,16.8082 25.0167167,16.8082 1.356098,0.911 2.442778,0.3644 2.399965,-1.2388 0,0 -1.000187,-37.356 -1.000187,-37.356 -0.04259,-1.5866 -1.181788,-3.2375 -2.517842,-3.6793 0,0 -24.6768545,-8.159 -24.6768545,-8.159 -0.8326579,-0.27519 -1.4745617,0.493 -1.4466592,1.7119 0,0 0.6577454,28.6688 0.6577454,28.6688 m 3.8044842,-4.1702 c -0.041413,-1.7647 0.8974378,-2.6092 2.1664204,-1.9091 1.3012267,0.7179 2.3776497,2.7367 2.4221007,4.5828 0.04448,1.8472 -0.964855,2.6525 -2.2691717,1.852 -1.2719694,-0.7806 -2.2779171,-2.7603 -2.3193494,-4.5257 0,0 0,0 0,0 m -0.385157,-16.4121 c -0.04123,-1.7569 0.8918667,-2.7554 2.153082,-2.2648 1.2931883,0.5032 2.3629631,2.3436 2.4072101,4.1812 0.04427,1.8387 -0.9587142,2.8098 -2.2549711,2.2247 -1.2641803,-0.5707 -2.2640715,-2.3834 -2.305321,-4.1411 0,0 0,0 0,0 m 6.2561671,11.2383 c -0.04535,-1.8685 1.00925,-2.8171 2.43541,-2.1461 1.464641,0.689 2.677021,2.7747 2.725949,4.7347 0.04895,1.9613 -1.089768,2.8698 -2.558045,2.0878 -1.429665,-0.7614 -2.557936,-2.8071 -2.603314,-4.6764 0,0 0,0 0,0 m 7.082028,12.7218 c -0.05025,-1.9952 1.150972,-2.8713 2.776499,-1.9746 1.672405,0.9227 3.057931,3.3062 3.112463,5.4062 0.05456,2.1012 -1.249135,2.9201 -2.925903,1.8909 -1.629724,-1.0001 -2.912783,-3.3263 -2.963059,-5.3225 0,0 0,0 0,0 m -0.467225,-18.5511 c -0.05,-1.9852 1.143173,-3.0585 2.757797,-2.4302 1.661066,0.6463 3.037173,2.7993 3.091418,4.8884 0.05428,2.0902 -1.240419,3.1231 -2.905812,2.3715 -1.618784,-0.7307 -2.893377,-2.8434 -2.943403,-4.8297 0,0 0,0 0,0"
       style="color:#000000;font-style:normal;font-variant:normal;font-weight:normal;font-stretch:normal;font-size:medium;line-height:normal;font-family:sans-serif;text-indent:0;text-align:start;text-decoration:none;text-decoration-line:none;text-decoration-style:solid;text-decoration-color:#000000;letter-spacing:normal;word-spacing:normal;text-transform:none;direction:ltr;block-progression:tb;writing-mode:lr-tb;baseline-shift:baseline;text-anchor:start;white-space:normal;clip-rule:nonzero;display:inline;overflow:visible;visibility:visible;opacity:1;isolation:auto;mix-blend-mode:normal;color-interpolation:sRGB;color-interpolation-filters:linearRGB;solid-color:#000000;solid-opacity:1;fill:#000000;fill-opacity:1;fill-rule:evenodd;stroke:none;stroke-width:4.5;stroke-linecap:round;stroke-linejoin:round;stroke-miterlimit:4;stroke-dasharray:none;stroke-dashoffset:0;stroke-opacity:1;color-rendering:auto;image-rendering:auto;shape-rendering:auto;text-rendering:auto;enable-background:accumulate" />
    <path
       sodipodi:nodetypes="ccccccccccscsc"
       inkscape:connector-curvature="0"
       id="rect4706-0"
       d="m 61.801604,1000.8973 c 0.0014,-1.2591 -0.632786,-2.06543 -1.429964,-1.79388 0,0 -24.148718,8.22988 -24.148718,8.22988 -1.336848,0.4558 -2.408509,2.1823 -2.364194,3.8417 0,0 1.000078,37.3519 1.000078,37.3519 0.04114,1.5324 1.123947,2.003 2.391831,1.0752 0,0 23.128546,-16.9255 23.128546,-16.9255 0.770869,-0.5642 1.386826,-1.9732 1.388301,-3.159 0,0 0.03412,-28.6203 0.03412,-28.6203 m -9.42464,19.5933 c 0.01548,1.8627 -1.001966,3.9077 -2.350945,4.6834 -1.387807,0.7982 -2.522378,-0.086 -2.548366,-2.0398 -0.02661,-1.9626 1.076154,-4.0713 2.475184,-4.7763 1.359528,-0.685 2.409042,0.2621 2.424127,2.1327 0,0 0,0 0,0"
       style="color:#000000;font-style:normal;font-variant:normal;font-weight:normal;font-stretch:normal;font-size:medium;line-height:normal;font-family:sans-serif;text-indent:0;text-align:start;text-decoration:none;text-decoration-line:none;text-decoration-style:solid;text-decoration-color:#000000;letter-spacing:normal;word-spacing:normal;text-transform:none;direction:ltr;block-progression:tb;writing-mode:lr-tb;baseline-shift:baseline;text-anchor:start;white-space:normal;clip-rule:nonzero;display:inline;overflow:visible;visibility:visible;opacity:1;isolation:auto;mix-blend-mode:normal;color-interpolation:sRGB;color-interpolation-filters:linearRGB;solid-color:#000000;solid-opacity:1;fill:#000000;fill-opacity:1;fill-rule:evenodd;stroke:none;stroke-width:4.5;stroke-linecap:round;stroke-linejoin:round;stroke-miterlimit:4;stroke-dasharray:none;stroke-dashoffset:0;stroke-opacity:1;color-rendering:auto;image-rendering:auto;shape-rendering:auto;text-rendering:auto;enable-background:accumulate" />
    <path
       sodipodi:nodetypes="cccccccccsssssssssssssss"
       inkscape:connector-curvature="0"
       id="rect4706-4"
       d="m 33.266925,991.07887 c -0.836632,-0.15335 -2.164877,-0.1512 -2.991733,0.005 0,0 -24.2823671,4.58398 -24.2823671,4.58398 -1.3025851,0.24593 -1.7619339,0.65307 -0.9861318,0.90964 0,0 24.6058359,8.13551 24.6058359,8.13551 1.427816,0.472 3.779963,0.4685 5.177942,-0.01 0,0 24.099834,-8.21329 24.099834,-8.21329 0.760099,-0.25912 0.274724,-0.66492 -1.044274,-0.90676 0,0 -24.579106,-4.5061 -24.579106,-4.5061 m 14.298651,4.36612 c 1.668253,0.33114 2.087091,0.87278 0.878964,1.23456 -1.2451,0.37284 -3.606438,0.37659 -5.297928,0.008 -1.641307,-0.35725 -1.875381,-0.89914 -0.609125,-1.23496 1.230562,-0.32634 3.406848,-0.32983 5.028089,-0.008 0,0 0,0 0,0 m -13.142301,0.0211 c 1.47756,0.33142 1.58703,0.87349 0.173905,1.23556 -1.456362,0.37313 -3.817222,0.37689 -5.29688,0.008 -1.43576,-0.35753 -1.360537,-0.89987 0.09584,-1.23595 1.415326,-0.32661 3.591208,-0.3301 5.027133,-0.008 0,0 0,0 0,0 m -13.139817,0.0211 c 1.286939,0.33168 1.087161,0.87419 -0.530879,1.23655 -1.667541,0.37344 -4.027892,0.37718 -5.2958,0.008 -1.230297,-0.35783 -0.845926,-0.90059 0.800504,-1.23696 1.600019,-0.32686 3.775497,-0.33036 5.026175,-0.008 0,0 0,0 0,0"
       style="color:#000000;font-style:normal;font-variant:normal;font-weight:normal;font-stretch:normal;font-size:medium;line-height:normal;font-family:sans-serif;text-indent:0;text-align:start;text-decoration:none;text-decoration-line:none;text-decoration-style:solid;text-decoration-color:#000000;letter-spacing:normal;word-spacing:normal;text-transform:none;direction:ltr;block-progression:tb;writing-mode:lr-tb;baseline-shift:baseline;text-anchor:start;white-space:normal;clip-rule:nonzero;display:inline;overflow:visible;visibility:visible;opacity:1;isolation:auto;mix-blend-mode:normal;color-interpolation:sRGB;color-interpolation-filters:linearRGB;solid-color:#000000;solid-opacity:1;fill:#000000;fill-opacity:1;fill-rule:evenodd;stroke:none;stroke-width:4.5;stroke-linecap:round;stroke-linejoin:round;stroke-miterlimit:4;stroke-dasharray:none;stroke-dashoffset:0;stroke-opacity:1;color-rendering:auto;image-rendering:auto;shape-rendering:auto;text-rendering:auto;enable-background:accumulate" />
  </g>
</svg>
