<!-- Generated by IcoMoon.io -->
<svg version="1.1" xmlns="http://www.w3.org/2000/svg" width="448" height="448" viewBox="0 0 448 448">
<title></title>
<g id="icomoon-ignore">
</g>
<path d="M440 224q0 44-17.125 84t-46 68.875-68.875 46-84 17.125-84-17.125-68.875-46-46-68.875-17.125-84q0-53.25 24.25-99.625t66.25-76.375 93.5-37.75v57q-55.25 11.25-91.625 55.25t-36.375 101.5q0 32.5 12.75 62.125t34.125 51 51 34.125 62.125 12.75 62.125-12.75 51-34.125 34.125-51 12.75-62.125q0-57.5-36.375-101.5t-91.625-55.25v-57q51.5 7.75 93.5 37.75t66.25 76.375 24.25 99.625z"></path>
</svg>
