<!-- Generated by IcoMoon.io -->
<svg version="1.1" xmlns="http://www.w3.org/2000/svg" width="448" height="448" viewBox="0 0 448 448">
<title></title>
<g id="icomoon-ignore">
</g>
<path d="M160 224q0-13.25-9.375-22.625t-22.625-9.375-22.625 9.375-9.375 22.625 9.375 22.625 22.625 9.375 22.625-9.375 9.375-22.625zM256 224q0-13.25-9.375-22.625t-22.625-9.375-22.625 9.375-9.375 22.625 9.375 22.625 22.625 9.375 22.625-9.375 9.375-22.625zM352 224q0-13.25-9.375-22.625t-22.625-9.375-22.625 9.375-9.375 22.625 9.375 22.625 22.625 9.375 22.625-9.375 9.375-22.625zM448 224q0 43.5-30 80.375t-81.5 58.25-112.5 21.375q-27.5 0-52.75-4.5-43.25 43.25-108.75 57.25-13 2.5-21.5 3.25-3 0.25-5.5-1.5t-3.25-4.5q-1-3.75 5-9.25 1.25-1.25 5.875-5.375t6.375-5.875 5.875-6.375 6-7.875 5.125-9.25 5-12 3.625-14.375 3.125-18.125q-36.5-22.5-57.375-54.125t-20.875-67.375q0-43.5 30-80.375t81.5-58.25 112.5-21.375 112.5 21.375 81.5 58.25 30 80.375z"></path>
</svg>
